<svg width="30" height="30" viewBox="0 0 30 30" fill="none" xmlns="http://www.w3.org/2000/svg">
<g clip-path="url(#clip0_244_150)">
<rect width="30" height="30" rx="3" fill="#89654E"/>
<path d="M38.3596 -7.41784C42.7091 -16.4763 39.0763 -15.2797 39.0763 -15.2797C39.0763 -15.2797 35.5413 -14.5134 36.0851 -6.79496C34.6515 -13.6111 31.7904 -7.89066 31.7904 -7.89066C31.7904 -7.89066 28.7523 -2.3222 34.213 -3.21246M38.3401 -7.33169C43.1039 -16.0565 43.7444 -11.4143 43.7444 -11.4143" stroke="#EBD6C8" stroke-opacity="0.462745" stroke-width="21" stroke-linecap="round"/>
<path d="M25.2094 28.9996C19.5816 25.2008 22.6361 23.1774 22.6361 23.1774C22.6361 23.1774 25.5054 20.8837 27.0891 27.6297C26.411 20.8851 30.0513 23.1897 30.0513 23.1897C30.0513 23.1897 33.7862 25.2241 29.4297 29.0066M25.2464 29.0538C19.3918 25.8693 20.1074 30.1854 20.1074 30.1854" stroke="#C8BAAB" stroke-linecap="round"/>
<path d="M1.05801 1.85851C7.47083 -0.372821 7.26164 3.28502 7.26164 3.28502C7.26164 3.28502 7.37985 6.95655 1.02914 4.18428C6.83633 7.68094 2.81045 9.21572 2.81045 9.21572C2.81045 9.21572 -1.05564 10.9881 -1.47533 5.2339M0.992472 1.85573C7.04917 -0.925272 3.16428 -2.93729 3.16428 -2.93729" stroke="#C8BAAB" stroke-linecap="round"/>
</g>
<defs>
<clipPath id="clip0_244_150">
<rect width="30" height="30" rx="3" fill="white"/>
</clipPath>
</defs>
</svg>
