<svg width="300" height="180" viewBox="0 0 300 180" fill="none" xmlns="http://www.w3.org/2000/svg">
<path d="M85.9051 107.951C50.8516 154.614 33.2278 122.161 33.2278 122.161C33.2278 122.161 13.1467 90.9889 73.9405 87.7613C13.3154 82.4157 34.6197 51.9651 34.6197 51.9651C34.6197 51.9651 53.5164 20.1486 86.6975 68.0001M86.3973 107.695C56.8164 157.578 95.6607 158.332 95.6607 158.332" stroke="#C8BAAB" stroke-width="4" stroke-linecap="round"/>
<path d="M110.999 109.008C134.348 161.714 95.6592 158.33 95.6592 158.33" stroke="#C8BAAB" stroke-width="4" stroke-linecap="round"/>
<path d="M86.6967 68.0011C60.2367 16.6029 99.0615 17.9506 99.0615 17.9506C99.0615 17.9506 137.889 16.662 111.34 68.02" stroke="#C8BAAB" stroke-width="4" stroke-linecap="round" stroke-linejoin="round"/>
<path d="M153.455 44.671C144.764 41.0764 130.801 42.8705 111.479 68.2591M152.902 134.374C144.074 138.235 129.708 136.896 111.129 108.94" stroke="#C8BAAB" stroke-width="4" stroke-linecap="round"/>
</svg>
