<svg width="300" height="180" viewBox="0 0 58 58" fill="none" xmlns="http://www.w3.org/2000/svg">
<path d="M41.4591 24.3822C42.2407 24.445 43.0223 24.5008 43.8039 24.5729C47.2 24.8539 50.5055 25.8125 53.5249 27.3922C54.6625 27.9618 55.6499 28.7914 56.4071 29.8138C57.6283 31.5305 57.3375 33.2914 55.5534 34.4475C54.5461 35.1012 53.4598 35.6106 52.2153 35.6827C50.7545 35.7734 49.2983 35.9572 47.8351 35.9968C46.4335 36.0291 45.0373 35.8133 43.7108 35.3594C42.6385 34.9965 41.5707 34.6243 40.4891 34.294C39.8874 34.0606 39.2279 34.0208 38.6025 34.18C38.7933 34.5173 38.8933 34.8383 39.105 35.0384C42.022 37.7833 43.9271 41.212 45.6997 44.7315C46.3878 46.0298 46.8444 47.438 47.0489 48.8931C47.1629 49.9475 47.1418 51.0122 46.9861 52.0613C46.8372 53.1197 46.0696 53.792 45.1135 54.2386C43.3735 55.0481 41.6103 54.8899 39.854 54.3293C38.2397 53.8036 36.8765 52.8731 35.6623 51.7101C33.3082 49.4909 31.4263 46.9391 30.2353 43.9057C30.0874 43.6257 29.917 43.3581 29.7259 43.1055C29.4132 43.8079 29.2137 44.5553 29.135 45.3201C28.8908 47.3035 28.4648 49.2602 27.8626 51.1657C27.1647 53.2244 26.1436 55.0458 24.3291 56.3438C23.1009 57.2161 21.8169 57.2463 20.5421 56.6392C19.7786 56.2968 19.1043 55.7828 18.5717 55.1373C18.0392 54.4917 17.6627 53.7321 17.4716 52.9173C17.0924 51.41 17.1203 49.8933 17.2948 48.3487C17.6053 45.8329 18.2345 43.3667 19.1674 41.0097C19.3023 40.6584 19.3837 40.2862 19.5326 39.7814C18.7277 39.7814 18.2881 40.1839 17.8135 40.4956C15.966 41.6969 13.9954 42.6974 11.9353 43.48C10.2442 44.136 8.50884 44.5827 6.67582 44.1384C6.22029 44.0448 5.7736 43.9125 5.34059 43.7429C3.11677 42.7752 2.40496 41.1678 3.22377 38.8789C3.43091 38.2461 3.75175 37.6565 4.17053 37.1389C5.2615 35.8921 6.41528 34.6941 7.59698 33.531C8.55304 32.5866 9.79521 32.0795 11.0095 31.5468C11.4747 31.3398 12.0679 31.2932 12.3145 30.5954C11.6166 30.4372 10.9188 30.2651 10.2209 30.1301C7.02474 29.5091 4.37523 27.8272 2.19328 25.5453C0.162531 23.4052 0.98367 20.6929 2.71899 19.6414C3.53316 19.146 4.45432 18.9901 5.40107 18.9622C8.54055 18.8934 11.6626 19.4468 14.5871 20.5905C15.1919 20.8231 15.7502 21.1744 16.7202 21.1837C15.4455 19.767 14.3731 18.5063 13.231 17.3199C11.2542 15.3133 9.90645 12.773 9.35324 10.0111C9.29523 9.7508 9.25789 9.48634 9.24158 9.22017C9.09038 5.93096 11.4398 3.3838 15.1919 4.22821C17.6321 4.77718 19.5116 6.30083 20.9841 8.24551C22.0216 9.61795 22.8264 11.1695 23.7336 12.642C24.0035 13.0816 24.271 13.5213 24.5199 13.9307C25.0549 13.7958 25.027 13.4259 25.0782 13.1142C25.348 11.4673 25.5876 9.83893 25.8923 8.18968C26.2343 6.32874 27.1043 4.67018 28.2185 3.15119C29.5956 1.27629 31.531 0.741272 33.7083 1.10881C35.6343 1.43447 37.3999 3.49081 37.593 5.43549C37.7763 6.89278 37.6316 8.37261 37.1696 9.76682C36.5974 11.3951 36.1182 13.0607 35.6134 14.7146C35.5785 14.8239 35.646 14.9658 35.6832 15.1798C36.381 14.6285 37.0789 14.1354 37.7349 13.5771C40.3286 11.3277 43.3782 10.4042 46.7604 10.4042C48.0379 10.4172 49.2756 10.8504 50.2823 11.6371C51.6594 12.6559 51.9455 13.9074 51.2848 15.5078C50.1869 18.162 48.1585 19.9275 45.7578 21.3233C44.2784 22.1932 42.8059 23.0772 41.3381 23.9542L41.4591 24.3822ZM21.6866 25.422C19.607 25.1893 17.7763 24.4729 15.9875 23.5959C13.2824 22.28 10.3387 21.5259 7.33412 21.3791C6.19662 21.3139 5.07773 21.3419 3.98211 21.9699C3.47268 23.2679 3.67738 24.4543 4.82186 25.3243C5.89096 26.114 7.00813 26.8365 8.16689 27.4876C8.78974 27.8685 9.47356 28.1392 10.1883 28.2878C11.4933 28.5204 12.8309 28.567 14.1428 28.7344C15.727 28.9345 17.3111 29.1345 18.8789 29.4183C19.6977 29.5672 20.2397 30.1022 20.1374 30.4977C19.9676 31.1537 19.4163 31.4072 18.8231 31.5631C17.66 31.8655 16.5109 32.1981 15.3338 32.44C11.4794 33.2286 8.54373 35.385 6.26176 38.4881C5.94999 38.9204 5.71401 39.4026 5.5639 39.914C5.09867 41.4702 6.0966 42.5356 7.72027 42.2542C8.04505 42.1922 8.36525 42.1083 8.67865 42.0029C11.5435 41.1098 14.2651 39.8093 16.7598 38.1415C18.302 37.1087 19.9815 36.2805 21.6075 35.371C21.7803 35.2647 21.9824 35.2165 22.1846 35.2332C22.3867 35.2499 22.5782 35.3308 22.7311 35.4641C22.9179 35.6093 23.0542 35.8098 23.1206 36.037C23.187 36.2641 23.1801 36.5065 23.1009 36.7295C22.8055 37.6809 22.5101 38.63 22.224 39.5837C21.5121 41.9424 20.7492 44.2872 20.1141 46.6646C19.6355 48.3351 19.4885 50.0831 19.6814 51.8101C19.8027 52.8117 20.23 53.7516 20.905 54.5015C21.3237 54.9806 21.8355 55.1039 22.3007 54.7038C23.03 54.1311 23.6938 53.4797 24.2803 52.7615C25.3969 51.303 25.8644 49.5421 26.2273 47.7788C26.6693 45.6271 27.088 43.4638 27.3532 41.2841C27.4951 40.1211 27.8742 38.9301 27.4788 37.7274C27.3346 37.2831 27.5718 36.9644 27.9301 36.7202C28.0947 36.6037 28.2913 36.5412 28.493 36.5412C28.6946 36.5412 28.8913 36.6037 29.0559 36.7202C29.6229 37.0834 30.0368 37.6421 30.219 38.2904C31.1751 41.1399 32.5336 43.815 34.0107 46.418C35.1115 48.3326 36.5946 50.0001 38.3676 51.3169C39.2818 52.0148 40.2448 52.5591 41.4172 52.7126C44.0458 53.0569 45.06 51.7822 44.718 49.6049C44.5726 48.4873 44.285 47.3929 43.862 46.3482C43.0548 44.5268 42.0918 42.7706 41.1474 41.012C40.224 39.3096 39.0307 37.7683 37.6139 36.448C36.837 35.7199 36.081 34.9663 35.3552 34.187C35.0444 33.839 34.7865 33.4471 34.5899 33.0239C34.22 32.2632 34.6318 31.4444 35.4552 31.4258C36.3164 31.3871 37.1787 31.4757 38.014 31.6887C40.1262 32.2842 42.2011 33.0146 44.2947 33.6543C45.0474 33.9135 45.8283 34.0822 46.6209 34.1567C47.9491 34.2335 49.2843 34.1777 50.6172 34.1567C51.7626 34.1027 52.8715 33.7376 53.825 33.1007C54.8974 32.4354 55.0067 31.0722 54.0902 30.1999C53.3036 29.4773 52.3978 28.8964 51.4128 28.4832C49.1215 27.476 46.6883 27.1224 44.2365 26.927C41.715 26.7246 39.1818 26.6944 36.6555 26.5339C36.0612 26.4838 35.4765 26.3523 34.9179 26.1431C34.6223 26.0005 34.3683 25.7842 34.1805 25.515C34.1176 25.4371 34.0728 25.3461 34.0495 25.2487C34.0261 25.1512 34.0247 25.0499 34.0454 24.9518C34.0662 24.8538 34.1084 24.7617 34.1692 24.682C34.23 24.6024 34.3077 24.5373 34.3968 24.4915C34.5713 24.3985 34.7667 24.3449 34.9481 24.2589C38.2978 22.7771 41.58 21.1651 44.6622 19.1762C45.5611 18.6087 46.4164 17.975 47.221 17.2804C48.0817 16.522 48.6004 15.4892 48.9912 14.4215C49.2936 13.5911 48.861 12.9886 47.9724 12.8676C47.7073 12.8397 47.441 12.8257 47.1745 12.8257C44.3156 12.7397 41.8057 13.6701 39.6074 15.4636C37.1194 17.4739 34.8095 19.6951 32.7034 22.1025C32.5251 22.3397 32.2778 22.5158 31.9953 22.6066C31.7129 22.6974 31.4093 22.6985 31.1262 22.6096C30.831 22.567 30.559 22.4256 30.3545 22.2084C30.15 21.9913 30.0252 21.7112 30.0004 21.414C31.9334 17.7735 33.7408 12.9165 34.8853 8.74563C35.1783 7.58216 35.2313 6.37122 35.0412 5.18659C34.9396 4.73492 34.7635 4.30332 34.5201 3.90952C34.399 3.66852 34.2043 3.47233 33.9643 3.34938C33.7242 3.22642 33.4512 3.18307 33.1849 3.22562C32.0823 3.321 31.1239 3.69086 30.426 4.62133C29.5828 5.74008 28.9463 7.00052 28.5465 8.34321C27.7998 10.8438 27.4555 13.4189 27.1508 15.9963C26.988 17.3734 26.5995 18.7528 26.988 20.1578C27.0062 20.2902 26.9967 20.4248 26.96 20.5533C26.8554 21.1581 25.9877 21.5489 25.5643 21.1348C25.1221 20.7407 24.7576 20.2674 24.4896 19.7391C23.9151 18.469 23.5336 17.1082 22.9125 15.866C21.7797 13.6073 20.6259 11.3463 19.293 9.20389C18.409 7.78492 17.1134 6.72186 15.3385 6.37759C13.4613 6.01005 12.1982 6.81491 11.8655 8.67585C11.6841 9.69239 11.8655 10.6647 12.1772 11.6254C12.7679 13.4748 13.7636 15.169 15.0919 16.5848C17.4848 19.187 19.8722 21.7885 22.2542 24.3891C22.3263 24.4682 22.303 24.6218 22.3356 24.8218L21.6866 25.422Z" fill="#C8BAAB" stroke="#C8BAAB" stroke-width="0.50528"/>
<path d="M21.6842 25.4247L22.3355 24.8245C22.3029 24.6338 22.3355 24.4709 22.2541 24.3919C19.8721 21.785 17.4846 19.1828 15.0918 16.5852C13.761 15.1724 12.7621 13.4805 12.1678 11.6328C11.8747 10.6721 11.6839 9.69975 11.8654 8.67623C12.198 6.80134 13.4611 6.00346 15.3337 6.371C17.1039 6.71527 18.3996 7.77833 19.2882 9.1973C20.6211 11.3397 21.7749 13.6007 22.9077 15.8595C23.5288 17.1016 23.9103 18.4624 24.4849 19.7325C24.7529 20.2608 25.1174 20.7341 25.5596 21.1282C25.9922 21.5423 26.8599 21.1515 26.9553 20.5467C26.992 20.4183 27.0015 20.2836 26.9832 20.1512C26.5947 18.7555 26.9832 17.3598 27.146 15.9897C27.4507 13.4123 27.795 10.8372 28.5417 8.33661C28.9415 6.99393 29.578 5.73349 30.4213 4.61473C31.1191 3.68427 32.0775 3.30975 33.1801 3.21903C33.4465 3.17648 33.7194 3.21982 33.9595 3.34278C34.1995 3.46574 34.3942 3.66193 34.5153 3.90293C34.7611 4.29857 34.9388 4.73259 35.041 5.18697C35.2351 6.37492 35.1844 7.58997 34.8922 8.75765C33.75 12.9285 31.9426 17.7855 30.0072 21.426C30.032 21.7232 30.1569 22.0033 30.3613 22.2204C30.5658 22.4376 30.8379 22.579 31.1331 22.6216C31.4161 22.7105 31.7198 22.7094 32.0022 22.6186C32.2846 22.5278 32.532 22.3517 32.7102 22.1145C34.8168 19.7046 37.1275 17.481 39.6166 15.4687C41.8149 13.6752 44.3248 12.7447 47.1837 12.8308C47.4531 12.8273 47.7226 12.8382 47.9909 12.8633C48.8795 12.9843 49.3121 13.5868 49.0097 14.4172C48.6189 15.4849 48.1002 16.5108 47.2395 17.2761C46.4349 17.9708 45.5796 18.6045 44.6807 19.1719C41.5985 21.1608 38.3163 22.7728 34.9666 24.2546C34.7852 24.336 34.5898 24.3895 34.4153 24.4872C34.3262 24.5331 34.2485 24.5982 34.1877 24.6778C34.1269 24.7574 34.0846 24.8496 34.0639 24.9476C34.0432 25.0456 34.0446 25.147 34.0679 25.2444C34.0913 25.3418 34.1361 25.4328 34.199 25.5107C34.3868 25.7799 34.6407 25.9962 34.9364 26.1388C35.495 26.348 36.0796 26.4795 36.674 26.5296C39.2002 26.6808 41.7334 26.7204 44.255 26.9227C46.7068 27.1181 49.14 27.4717 51.4313 28.4789C52.4162 28.8922 53.3221 29.473 54.1087 30.1957C55.0252 31.068 54.9159 32.4311 53.8435 33.0964C52.8917 33.7255 51.7871 34.0849 50.6473 34.1362C49.3144 34.1641 47.9792 34.2199 46.651 34.1362C45.8584 34.0616 45.0775 33.8929 44.3248 33.6337C42.2313 32.994 40.1517 32.2636 38.0441 31.6681C37.2088 31.4551 36.3466 31.3665 35.4853 31.4053C34.6619 31.4239 34.2502 32.2427 34.62 33.0034C34.8166 33.4265 35.0745 33.8184 35.3853 34.1664C36.1111 34.9457 36.8671 35.6994 37.644 36.4275C39.0608 37.7478 40.2542 39.2891 41.1775 40.9914C42.1219 42.75 43.085 44.5063 43.8921 46.3277C44.3151 47.3723 44.6028 48.4667 44.7482 49.5843C45.0901 51.7663 44.0759 53.0364 41.4473 52.6921C40.2842 52.5386 39.3119 51.9942 38.3977 51.2964C36.6247 49.9796 35.1417 48.312 34.0408 46.3975C32.5637 43.7945 31.2052 41.1194 30.2491 38.2698C30.067 37.6216 29.6531 37.0628 29.086 36.6996C28.9214 36.5832 28.7248 36.5206 28.5231 36.5206C28.3215 36.5206 28.1248 36.5832 27.9602 36.6996C27.6019 36.9323 27.3647 37.2626 27.5089 37.7069C27.9044 38.9095 27.5252 40.0982 27.3833 41.2636C27.1181 43.4432 26.6994 45.6066 26.2574 47.7583C25.8945 49.5215 25.427 51.2824 24.3104 52.7409C23.7239 53.4592 23.0601 54.1106 22.3308 54.6833C21.8656 55.0834 21.3445 54.9601 20.9351 54.4809C20.261 53.7338 19.833 52.7975 19.7092 51.7988C19.5163 50.0719 19.6632 48.3238 20.1419 46.6533C20.777 44.276 21.5376 41.9312 22.2518 39.5725C22.5379 38.6187 22.8333 37.6697 23.1287 36.7183C23.2092 36.4964 23.2179 36.2549 23.1536 36.0278C23.0893 35.8007 22.9553 35.5996 22.7705 35.4528C22.6176 35.3196 22.4261 35.2387 22.224 35.2219C22.0219 35.2052 21.8197 35.2535 21.6469 35.3598C20.0186 36.267 18.3415 37.0974 16.7992 38.1302C14.2929 39.8056 11.5578 41.1101 8.67853 42.0033C8.36307 42.1121 8.04053 42.1992 7.71317 42.2638C6.08485 42.5453 5.0939 41.4799 5.55681 39.9237C5.70691 39.4123 5.94289 38.9301 6.25466 38.4978C8.54129 35.3854 11.4769 33.229 15.3267 32.4497C16.4898 32.2171 17.6529 31.8752 18.816 31.5728C19.4092 31.4169 19.9605 31.1633 20.1303 30.5074C20.2326 30.1119 19.6906 29.5769 18.8718 29.428C17.304 29.1442 15.7199 28.9442 14.1357 28.7441C12.8191 28.5766 11.4816 28.5255 10.1812 28.2975C9.46646 28.1489 8.78264 27.8782 8.15979 27.4973C7.00103 26.8462 5.88387 26.1237 4.81476 25.334C3.67028 24.464 3.46558 23.2776 3.97501 21.9796C5.07064 21.3515 6.18953 21.3236 7.32702 21.3888C10.3316 21.5356 13.2753 22.2897 15.9804 23.6056C17.7739 24.4733 19.6115 25.1921 21.6842 25.4247Z" stroke="#C8BAAB" stroke-width="0.50528"/>
</svg>
