<!DOCTYPE svg PUBLIC "-//W3C//DTD SVG 1.1//EN" "http://www.w3.org/Graphics/SVG/1.1/DTD/svg11.dtd">

<!-- Uploaded to: SVG Repo, www.svgrepo.com, Transformed by: SVG Repo Mixer Tools -->
<svg fill="#c8baab" width="64px" height="64px" viewBox="0 0 32 32" version="1.1" xmlns="http://www.w3.org/2000/svg">

<g id="SVGRepo_bgCarrier" stroke-width="0"/>

<g id="SVGRepo_tracerCarrier" stroke-linecap="round" stroke-linejoin="round"/>

<g id="SVGRepo_iconCarrier"> <title>butterfly</title> <path d="M31.066 13.628c-5.686-3.184-11.96-2.039-16.737 2.968 5.664 3.11 11.99 2.022 16.737-2.968zM3.619 2.465c6.227 1.758 9.829 6.968 9.668 13.838-6.16-1.794-9.838-7.001-9.668-13.838v0zM13.92 17.77c5.325 2.108 7.058 6.404 4.701 11.425-5.25-2.126-7.057-6.43-4.701-11.425v0zM12.927 17.421c-5.176-2.124-9.441-0.286-11.402 4.827 5.138 2.061 9.458 0.267 11.402-4.827z"/> </g>

</svg>