<svg width="131" height="157" viewBox="0 0 131 157" fill="none" xmlns="http://www.w3.org/2000/svg">
<circle cx="65" cy="65" r="64.5" stroke="white"/>
<path d="M11.72 146.048C11.616 146.048 11.524 146.012 11.444 145.94C11.372 145.86 11.336 145.768 11.336 145.664C11.336 145.552 11.372 145.46 11.444 145.388C11.516 145.316 11.604 145.28 11.708 145.28C11.82 145.28 11.912 145.32 11.984 145.4C12.064 145.472 12.104 145.56 12.104 145.664C12.104 145.768 12.064 145.86 11.984 145.94C11.912 146.012 11.824 146.048 11.72 146.048ZM18.8162 137.6C18.9682 137.752 19.0442 137.948 19.0442 138.188C19.0442 138.388 19.0002 138.592 18.9122 138.8L15.8402 146L15.7082 146.06L12.6842 137.6H13.7042L16.2122 144.704L18.7682 138.8C18.8562 138.6 18.9002 138.392 18.9002 138.176C18.9002 137.96 18.8402 137.792 18.7202 137.672L18.8162 137.6ZM21.1063 146C20.7783 146 20.5263 145.928 20.3503 145.784C20.1823 145.64 20.0943 145.496 20.0863 145.352L20.0743 145.148V140H20.9143V145.148C20.9143 145.38 20.9583 145.56 21.0463 145.688C21.1423 145.808 21.2343 145.872 21.3223 145.88L21.4663 145.904H21.8383V146H21.1063ZM20.1463 138.656C20.0503 138.56 20.0023 138.44 20.0023 138.296C20.0023 138.152 20.0503 138.032 20.1463 137.936C20.2423 137.832 20.3623 137.78 20.5063 137.78C20.6503 137.78 20.7703 137.832 20.8663 137.936C20.9703 138.032 21.0223 138.152 21.0223 138.296C21.0223 138.44 20.9703 138.56 20.8663 138.656C20.7703 138.752 20.6503 138.8 20.5063 138.8C20.3623 138.8 20.2423 138.752 20.1463 138.656ZM25.0107 140.048C24.4427 140.048 23.9667 140.32 23.5827 140.864C23.2067 141.408 23.0187 142.16 23.0187 143.12C23.0187 144.08 23.1907 144.792 23.5347 145.256C23.8867 145.72 24.3467 145.952 24.9147 145.952C25.6267 145.952 26.2587 145.832 26.8107 145.592L26.8467 145.676C26.2787 145.924 25.6147 146.048 24.8547 146.048C24.0947 146.048 23.4627 145.808 22.9587 145.328C22.4547 144.848 22.2027 144.108 22.2027 143.108C22.2027 142.108 22.4667 141.332 22.9947 140.78C23.5227 140.228 24.1947 139.952 25.0107 139.952C25.4667 139.952 25.8867 140.056 26.2707 140.264C26.6627 140.472 26.9507 140.788 27.1347 141.212H26.3667C26.2467 140.82 26.0627 140.528 25.8147 140.336C25.5747 140.144 25.3067 140.048 25.0107 140.048ZM27.92 140.096V140H28.172V138.8H29.012V140H30.848V140.096H29.012V144.464C29.012 144.984 29.068 145.36 29.18 145.592C29.3 145.824 29.544 145.94 29.912 145.94C30.288 145.94 30.668 145.864 31.052 145.712L31.088 145.808C30.688 145.96 30.228 146.036 29.708 146.036C29.196 146.036 28.812 145.932 28.556 145.724C28.3 145.508 28.172 145.084 28.172 144.452V140.096H27.92ZM34.2342 146.048C33.3942 146.048 32.7102 145.808 32.1822 145.328C31.6542 144.848 31.3902 144.108 31.3902 143.108C31.3902 142.108 31.6622 141.332 32.2062 140.78C32.7582 140.228 33.4542 139.952 34.2942 139.952C35.1422 139.952 35.8302 140.192 36.3582 140.672C36.8862 141.152 37.1502 141.892 37.1502 142.892C37.1502 143.892 36.8742 144.668 36.3222 145.22C35.7782 145.772 35.0822 146.048 34.2342 146.048ZM34.3182 140.048C33.7102 140.048 33.2062 140.32 32.8062 140.864C32.4062 141.4 32.2062 142.152 32.2062 143.12C32.2062 144.08 32.3902 144.792 32.7582 145.256C33.1262 145.72 33.6142 145.952 34.2222 145.952C34.8302 145.952 35.3342 145.684 35.7342 145.148C36.1342 144.604 36.3342 143.852 36.3342 142.892C36.3342 141.924 36.1502 141.208 35.7822 140.744C35.4142 140.28 34.9262 140.048 34.3182 140.048ZM40.1626 140.516V140.264C39.8026 140.408 39.4746 140.7 39.1786 141.14C38.8826 141.572 38.7266 141.98 38.7106 142.364V146H37.8706V140H38.7106V141.908C38.8386 141.444 39.0826 141.008 39.4426 140.6C39.8026 140.184 40.2106 139.968 40.6666 139.952H40.7146C40.8746 139.952 41.0066 140.008 41.1106 140.12C41.2226 140.224 41.2786 140.356 41.2786 140.516C41.2786 140.676 41.2226 140.808 41.1106 140.912C41.0066 141.016 40.8746 141.068 40.7146 141.068C40.5546 141.068 40.4226 141.016 40.3186 140.912C40.2146 140.808 40.1626 140.676 40.1626 140.516ZM43.4071 146C43.0791 146 42.8271 145.928 42.6511 145.784C42.4831 145.64 42.3951 145.496 42.3871 145.352L42.3751 145.148V140H43.2151V145.148C43.2151 145.38 43.2591 145.56 43.3471 145.688C43.4431 145.808 43.5351 145.872 43.6231 145.88L43.7671 145.904H44.1391V146H43.4071ZM42.4471 138.656C42.3511 138.56 42.3031 138.44 42.3031 138.296C42.3031 138.152 42.3511 138.032 42.4471 137.936C42.5431 137.832 42.6631 137.78 42.8071 137.78C42.9511 137.78 43.0711 137.832 43.1671 137.936C43.2711 138.032 43.3231 138.152 43.3231 138.296C43.3231 138.44 43.2711 138.56 43.1671 138.656C43.0711 138.752 42.9511 138.8 42.8071 138.8C42.6631 138.8 42.5431 138.752 42.4471 138.656ZM49.8227 146C49.2787 146 48.9067 145.896 48.7067 145.688C48.5227 145.512 48.4307 145.36 48.4307 145.232V144.98C48.0387 145.692 47.4107 146.048 46.5467 146.048C45.5387 146.048 44.9667 145.592 44.8307 144.68C44.8147 144.584 44.8067 144.488 44.8067 144.392C44.8067 144.288 44.8227 144.176 44.8547 144.056C44.8867 143.936 44.9787 143.804 45.1307 143.66C45.4347 143.372 46.1027 143.196 47.1347 143.132C47.3907 143.108 47.6267 143.096 47.8427 143.096C48.0587 143.096 48.2547 143.104 48.4307 143.12V141.128C48.4147 141.12 48.4147 141.084 48.4307 141.02C48.4467 140.948 48.4307 140.86 48.3827 140.756C48.3427 140.644 48.2867 140.536 48.2147 140.432C48.1427 140.328 48.0147 140.24 47.8307 140.168C47.6467 140.088 47.4067 140.048 47.1107 140.048C46.8147 140.048 46.4667 140.104 46.0667 140.216C45.6747 140.32 45.3867 140.424 45.2027 140.528L45.1547 140.444C45.8667 140.116 46.5907 139.952 47.3267 139.952C48.1507 139.952 48.6947 140.1 48.9587 140.396C49.1667 140.628 49.2707 140.872 49.2707 141.128V145.148C49.2707 145.38 49.3147 145.56 49.4027 145.688C49.4987 145.808 49.5947 145.872 49.6907 145.88L49.8227 145.904H50.1947V146H49.8227ZM46.7387 145.952C47.1627 145.952 47.5427 145.808 47.8787 145.52C48.2227 145.224 48.4067 144.94 48.4307 144.668V143.216C48.2147 143.2 47.9947 143.192 47.7707 143.192C47.5547 143.192 47.3387 143.204 47.1227 143.228C46.5147 143.3 46.1187 143.436 45.9347 143.636C45.7507 143.836 45.6587 144.112 45.6587 144.464C45.6587 144.528 45.6627 144.6 45.6707 144.68C45.7427 145.528 46.0987 145.952 46.7387 145.952ZM55.835 146C55.507 146 55.255 145.928 55.079 145.784C54.911 145.64 54.823 145.496 54.815 145.352L54.803 145.148V141.38C54.803 140.748 54.639 140.344 54.311 140.168C54.143 140.088 53.935 140.048 53.687 140.048C53.175 140.048 52.715 140.252 52.307 140.66C51.899 141.06 51.695 141.42 51.695 141.74V146H50.855V140H51.695V141.368C51.831 141.024 52.083 140.704 52.451 140.408C52.819 140.104 53.223 139.952 53.663 139.952C54.103 139.952 54.459 139.996 54.731 140.084C55.011 140.164 55.215 140.28 55.343 140.432C55.543 140.68 55.643 141 55.643 141.392V145.148C55.643 145.38 55.687 145.56 55.775 145.688C55.871 145.808 55.967 145.872 56.063 145.88L56.195 145.904H56.567V146H55.835ZM57.4114 146.048C57.3074 146.048 57.2154 146.012 57.1354 145.94C57.0634 145.86 57.0274 145.768 57.0274 145.664C57.0274 145.552 57.0634 145.46 57.1354 145.388C57.2074 145.316 57.2954 145.28 57.3994 145.28C57.5114 145.28 57.6034 145.32 57.6754 145.4C57.7554 145.472 57.7954 145.56 57.7954 145.664C57.7954 145.768 57.7554 145.86 57.6754 145.94C57.6034 146.012 57.5154 146.048 57.4114 146.048ZM62.8036 146.048C61.3076 146.048 60.1996 145.624 59.4796 144.776C59.2236 144.472 59.0156 144.068 58.8556 143.564C58.6956 143.06 58.6156 142.448 58.6156 141.728C58.6156 141.008 58.7316 140.364 58.9636 139.796C59.2036 139.22 59.5276 138.776 59.9356 138.464C60.7276 137.88 61.6836 137.588 62.8036 137.588C63.1236 137.588 63.4356 137.616 63.7396 137.672C64.0436 137.72 64.2716 137.772 64.4236 137.828L64.6396 137.912L64.6036 138.032C64.0596 137.816 63.4596 137.708 62.8036 137.708C61.9556 137.708 61.2476 137.984 60.6796 138.536C60.2476 138.944 59.9436 139.544 59.7676 140.336C59.6636 140.784 59.6116 141.332 59.6116 141.98C59.6116 142.628 59.7036 143.228 59.8876 143.78C60.0716 144.324 60.2796 144.728 60.5116 144.992C60.7516 145.256 61.0396 145.468 61.3756 145.628C61.7116 145.78 61.9796 145.868 62.1796 145.892C62.3796 145.916 62.6196 145.928 62.8996 145.928C63.1876 145.928 63.5116 145.9 63.8716 145.844C64.2316 145.788 64.5036 145.736 64.6876 145.688L64.9636 145.604L64.9996 145.724C64.3916 145.94 63.6596 146.048 62.8036 146.048ZM68.5115 146.048C67.6715 146.048 66.9875 145.808 66.4595 145.328C65.9315 144.848 65.6675 144.108 65.6675 143.108C65.6675 142.108 65.9395 141.332 66.4835 140.78C67.0355 140.228 67.7315 139.952 68.5715 139.952C69.4195 139.952 70.1075 140.192 70.6355 140.672C71.1635 141.152 71.4275 141.892 71.4275 142.892C71.4275 143.892 71.1515 144.668 70.5995 145.22C70.0555 145.772 69.3595 146.048 68.5115 146.048ZM68.5955 140.048C67.9875 140.048 67.4835 140.32 67.0835 140.864C66.6835 141.4 66.4835 142.152 66.4835 143.12C66.4835 144.08 66.6675 144.792 67.0355 145.256C67.4035 145.72 67.8915 145.952 68.4995 145.952C69.1075 145.952 69.6115 145.684 70.0115 145.148C70.4115 144.604 70.6115 143.852 70.6115 142.892C70.6115 141.924 70.4275 141.208 70.0595 140.744C69.6915 140.28 69.2035 140.048 68.5955 140.048ZM77.128 146C76.8 146 76.548 145.928 76.372 145.784C76.204 145.64 76.116 145.496 76.108 145.352L76.096 145.148V141.38C76.096 140.748 75.932 140.344 75.604 140.168C75.436 140.088 75.228 140.048 74.98 140.048C74.468 140.048 74.008 140.252 73.6 140.66C73.192 141.06 72.988 141.42 72.988 141.74V146H72.148V140H72.988V141.368C73.124 141.024 73.376 140.704 73.744 140.408C74.112 140.104 74.516 139.952 74.956 139.952C75.396 139.952 75.752 139.996 76.024 140.084C76.304 140.164 76.508 140.28 76.636 140.432C76.836 140.68 76.936 141 76.936 141.392V145.148C76.936 145.38 76.98 145.56 77.068 145.688C77.164 145.808 77.26 145.872 77.356 145.88L77.488 145.904H77.86V146H77.128ZM78.4044 140.096V140H78.6564V138.8H79.4964V140H81.3324V140.096H79.4964V144.464C79.4964 144.984 79.5524 145.36 79.6644 145.592C79.7844 145.824 80.0284 145.94 80.3964 145.94C80.7724 145.94 81.1524 145.864 81.5364 145.712L81.5724 145.808C81.1724 145.96 80.7124 146.036 80.1924 146.036C79.6804 146.036 79.2964 145.932 79.0404 145.724C78.7844 145.508 78.6564 145.084 78.6564 144.452V140.096H78.4044ZM83.3329 146C83.0049 146 82.7529 145.928 82.5769 145.784C82.4089 145.64 82.3209 145.496 82.3129 145.352L82.3009 145.148V140H83.1409V145.148C83.1409 145.38 83.1849 145.56 83.2729 145.688C83.3689 145.808 83.4609 145.872 83.5489 145.88L83.6929 145.904H84.0649V146H83.3329ZM82.3729 138.656C82.2769 138.56 82.2289 138.44 82.2289 138.296C82.2289 138.152 82.2769 138.032 82.3729 137.936C82.4689 137.832 82.5889 137.78 82.7329 137.78C82.8769 137.78 82.9969 137.832 83.0929 137.936C83.1969 138.032 83.2489 138.152 83.2489 138.296C83.2489 138.44 83.1969 138.56 83.0929 138.656C82.9969 138.752 82.8769 138.8 82.7329 138.8C82.5889 138.8 82.4689 138.752 82.3729 138.656ZM89.7725 146C89.4445 146 89.1925 145.928 89.0165 145.784C88.8485 145.64 88.7605 145.496 88.7525 145.352L88.7405 145.148V141.38C88.7405 140.748 88.5765 140.344 88.2485 140.168C88.0805 140.088 87.8725 140.048 87.6245 140.048C87.1125 140.048 86.6525 140.252 86.2445 140.66C85.8365 141.06 85.6325 141.42 85.6325 141.74V146H84.7925V140H85.6325V141.368C85.7685 141.024 86.0205 140.704 86.3885 140.408C86.7565 140.104 87.1605 139.952 87.6005 139.952C88.0405 139.952 88.3965 139.996 88.6685 140.084C88.9485 140.164 89.1525 140.28 89.2805 140.432C89.4805 140.68 89.5805 141 89.5805 141.392V145.148C89.5805 145.38 89.6245 145.56 89.7125 145.688C89.8085 145.808 89.9045 145.872 90.0005 145.88L90.1325 145.904H90.5045V146H89.7725ZM91.8077 143.072C91.8077 144.064 91.9797 144.792 92.3237 145.256C92.6757 145.72 93.1357 145.952 93.7037 145.952C94.5037 145.952 95.2157 145.832 95.8397 145.592L95.8757 145.676C95.2357 145.924 94.5117 146.048 93.7037 146.048C92.9037 146.048 92.2517 145.808 91.7477 145.328C91.2437 144.848 90.9917 144.108 90.9917 143.108C90.9917 142.108 91.2557 141.332 91.7837 140.78C92.3117 140.228 92.9837 139.952 93.7997 139.952C94.4557 139.952 95.0077 140.148 95.4557 140.54C95.9037 140.932 96.1277 141.512 96.1277 142.28C96.1277 142.32 96.1277 142.36 96.1277 142.4H91.8437C91.8197 142.616 91.8077 142.84 91.8077 143.072ZM95.3117 142.304C95.3037 141.536 95.1557 140.968 94.8677 140.6C94.5797 140.232 94.2077 140.048 93.7517 140.048C93.2957 140.048 92.8877 140.248 92.5277 140.648C92.1757 141.048 91.9517 141.6 91.8557 142.304H95.3117ZM101.597 146C101.269 146 101.017 145.928 100.841 145.784C100.673 145.64 100.585 145.496 100.577 145.352L100.565 145.148V141.38C100.565 140.748 100.401 140.344 100.073 140.168C99.9047 140.088 99.6967 140.048 99.4487 140.048C98.9367 140.048 98.4767 140.252 98.0687 140.66C97.6607 141.06 97.4567 141.42 97.4567 141.74V146H96.6167V140H97.4567V141.368C97.5927 141.024 97.8447 140.704 98.2127 140.408C98.5807 140.104 98.9847 139.952 99.4247 139.952C99.8647 139.952 100.221 139.996 100.493 140.084C100.773 140.164 100.977 140.28 101.105 140.432C101.305 140.68 101.405 141 101.405 141.392V145.148C101.405 145.38 101.449 145.56 101.537 145.688C101.633 145.808 101.729 145.872 101.825 145.88L101.957 145.904H102.329V146H101.597ZM102.873 140.096V140H103.125V138.8H103.965V140H105.801V140.096H103.965V144.464C103.965 144.984 104.021 145.36 104.133 145.592C104.253 145.824 104.497 145.94 104.865 145.94C105.241 145.94 105.621 145.864 106.005 145.712L106.041 145.808C105.641 145.96 105.181 146.036 104.661 146.036C104.149 146.036 103.765 145.932 103.509 145.724C103.253 145.508 103.125 145.084 103.125 144.452V140.096H102.873ZM111.663 146C111.119 146 110.747 145.896 110.547 145.688C110.363 145.512 110.271 145.36 110.271 145.232V144.98C109.879 145.692 109.251 146.048 108.387 146.048C107.379 146.048 106.807 145.592 106.671 144.68C106.655 144.584 106.647 144.488 106.647 144.392C106.647 144.288 106.663 144.176 106.695 144.056C106.727 143.936 106.819 143.804 106.971 143.66C107.275 143.372 107.943 143.196 108.975 143.132C109.231 143.108 109.467 143.096 109.683 143.096C109.899 143.096 110.095 143.104 110.271 143.12V141.128C110.255 141.12 110.255 141.084 110.271 141.02C110.287 140.948 110.271 140.86 110.223 140.756C110.183 140.644 110.127 140.536 110.055 140.432C109.983 140.328 109.855 140.24 109.671 140.168C109.487 140.088 109.247 140.048 108.951 140.048C108.655 140.048 108.307 140.104 107.907 140.216C107.515 140.32 107.227 140.424 107.043 140.528L106.995 140.444C107.707 140.116 108.431 139.952 109.167 139.952C109.991 139.952 110.535 140.1 110.799 140.396C111.007 140.628 111.111 140.872 111.111 141.128V145.148C111.111 145.38 111.155 145.56 111.243 145.688C111.339 145.808 111.435 145.872 111.531 145.88L111.663 145.904H112.035V146H111.663ZM108.579 145.952C109.003 145.952 109.383 145.808 109.719 145.52C110.063 145.224 110.247 144.94 110.271 144.668V143.216C110.055 143.2 109.835 143.192 109.611 143.192C109.395 143.192 109.179 143.204 108.963 143.228C108.355 143.3 107.959 143.436 107.775 143.636C107.591 143.836 107.499 144.112 107.499 144.464C107.499 144.528 107.503 144.6 107.511 144.68C107.583 145.528 107.939 145.952 108.579 145.952ZM114.453 146C113.749 146 113.305 145.816 113.121 145.448C113.081 145.368 113.061 145.296 113.061 145.232V137.012H113.901V145.148C113.901 145.38 113.945 145.56 114.033 145.688C114.129 145.808 114.225 145.872 114.321 145.88L114.453 145.904H114.825V146H114.453Z" fill="white"/>
<path d="M106.562 63.5C106.562 86.6901 87.5265 105.5 64.0312 105.5C40.536 105.5 21.5 86.6901 21.5 63.5C21.5 40.3099 40.536 21.5 64.0312 21.5C87.5265 21.5 106.562 40.3099 106.562 63.5Z" stroke="white"/>
<path d="M68.0651 110.383C68.1691 110.382 68.2616 110.417 68.3426 110.488C68.4156 110.567 68.4529 110.659 68.4543 110.763C68.4558 110.875 68.421 110.967 68.35 111.04C68.2789 111.112 68.1914 111.149 68.0874 111.151C67.9754 111.152 67.8829 111.113 67.8098 111.033C67.7289 110.962 67.6877 110.875 67.6863 110.771C67.6849 110.667 67.7237 110.574 67.8026 110.494C67.8736 110.421 67.9611 110.384 68.0651 110.383Z" fill="white"/>
<path d="M49.6369 116.679C49.5346 116.497 49.5192 116.292 49.5907 116.063C49.6503 115.872 49.7538 115.688 49.9012 115.51L55.0284 109.374L55.1744 109.349L55.5898 118.15L54.5996 117.905L54.2812 110.522L50.041 115.545C49.896 115.715 49.7913 115.903 49.7269 116.109C49.6626 116.315 49.6708 116.49 49.7515 116.633L49.6369 116.679Z" fill="white"/>
<path d="M39.2415 103.782C39.5267 103.944 39.7039 104.127 39.7731 104.331C39.8353 104.531 39.8279 104.692 39.7509 104.813L39.6425 104.984L36.6431 109.168L35.9126 108.754L38.912 104.57C39.0472 104.381 39.1138 104.213 39.1119 104.066C39.0983 103.921 39.0556 103.823 38.9837 103.773L38.8725 103.683L38.549 103.499L38.6049 103.421L39.2415 103.782ZM35.7974 110.225C35.8249 110.351 35.7968 110.472 35.7129 110.589C35.629 110.706 35.5173 110.78 35.3779 110.81C35.2338 110.847 35.0992 110.83 34.9739 110.759C34.8487 110.688 34.7746 110.587 34.7518 110.455C34.7172 110.325 34.7419 110.202 34.8258 110.085C34.9097 109.968 35.0249 109.896 35.1713 109.87C35.3107 109.839 35.443 109.859 35.5682 109.93C35.6935 110.001 35.7698 110.1 35.7974 110.225Z" fill="white"/>
<path d="M23.9427 100.076C24.3472 100.474 24.8982 100.638 25.5958 100.567C26.2877 100.49 27.0078 100.152 27.7563 99.5504C28.5048 98.9492 28.9374 98.3826 29.0542 97.8505C29.1653 97.3128 29.0186 96.8446 28.6141 96.4458C28.1071 95.946 27.5634 95.5774 26.9832 95.3401L27.0231 95.2623C27.6209 95.5057 28.1905 95.8943 28.7317 96.4278C29.2729 96.9614 29.5358 97.5554 29.5205 98.2098C29.5052 98.8643 29.1077 99.5046 28.328 100.131C27.5484 100.757 26.7554 101.058 25.949 101.033C25.1426 101.008 24.4489 100.709 23.8678 100.136C23.5431 99.8156 23.3251 99.4556 23.2138 99.0558C23.0968 98.6503 23.1381 98.2502 23.3377 97.8555L23.8846 98.3947C23.6644 98.7244 23.5678 99.0365 23.5947 99.3308C23.6159 99.6195 23.7319 99.8678 23.9427 100.076Z" fill="white"/>
<path d="M15.1059 89.2988L15.0173 89.3357L14.9001 89.1126L13.7922 89.5735L13.4015 88.8299L14.5095 88.369L13.6556 86.7436L13.7443 86.7067L14.5981 88.3321L18.6311 86.6544C19.1112 86.4547 19.4323 86.2607 19.5944 86.0725C19.7528 85.8771 19.7465 85.6166 19.5753 85.2908C19.4005 84.9579 19.1536 84.6507 18.8346 84.3691L18.9065 84.3004C19.2329 84.5961 19.517 84.9742 19.7588 85.4345C19.9969 85.8878 20.0795 86.2677 20.0065 86.5742C19.9261 86.8838 19.5942 87.1599 19.0106 87.4027L14.9887 89.0757L15.1059 89.2988Z" fill="white"/>
<path d="M14.7508 71.7541C14.8693 72.5856 14.7274 73.2897 14.3249 73.8663C13.9224 74.4428 13.2244 74.7872 12.2307 74.8994C11.237 75.0115 10.4275 74.8293 9.80221 74.3526C9.1758 73.8681 8.80332 73.21 8.68478 72.3784C8.56511 71.5389 8.70651 70.8309 9.10897 70.2543C9.51143 69.6778 10.2095 69.3334 11.2032 69.2212C12.1969 69.1091 13.0069 69.2953 13.6334 69.7798C14.2586 70.2565 14.6311 70.9145 14.7508 71.7541ZM8.77679 72.3439C8.86259 72.9458 9.204 73.4143 9.80101 73.7492C10.3901 74.0851 11.1656 74.1988 12.1274 74.0902C13.0814 73.9825 13.7629 73.7205 14.1721 73.3041C14.5812 72.8878 14.7429 72.3786 14.6571 71.7767C14.5713 71.1748 14.2338 70.7059 13.6448 70.37C13.0478 70.035 12.2723 69.9214 11.3183 70.0291C10.3565 70.1376 9.67094 70.4001 9.2618 70.8165C8.85266 71.2328 8.69099 71.742 8.77679 72.3439Z" fill="white"/>
<path d="M9.56365 55.6616L9.31507 55.6202C9.38305 55.9961 9.60361 56.3651 9.97674 56.727C10.342 57.0876 10.7123 57.3073 11.0878 57.386L14.6745 57.9831L14.5017 58.8051L8.58312 57.8198L8.75593 56.9978L10.638 57.3111C10.2067 57.1096 9.82678 56.7993 9.49838 56.38C9.16209 55.9594 9.03296 55.5246 9.11099 55.0757L9.12087 55.0288C9.15378 54.8722 9.23618 54.7522 9.36806 54.6688C9.49369 54.5763 9.63541 54.5432 9.79324 54.5694C9.95107 54.5957 10.0698 54.6722 10.1493 54.7989C10.2305 54.9177 10.2546 55.0555 10.2217 55.212C10.1888 55.3686 10.1103 55.4892 9.98637 55.5739C9.86238 55.6586 9.72148 55.6878 9.56365 55.6616Z" fill="white"/>
<path d="M19.2074 45.1444C19.0542 45.4344 18.8701 45.6294 18.655 45.7295C18.4437 45.8224 18.2697 45.8447 18.1332 45.7962L17.9394 45.728L13.1902 43.7411L13.5826 42.9984L18.3318 44.9853C18.5458 45.0749 18.7324 45.1054 18.8916 45.077C19.0471 45.0385 19.1491 44.9818 19.1976 44.9071L19.287 44.789L19.4608 44.4601L19.5494 44.4972L19.2074 45.1444ZM11.984 43.1587C11.8506 43.2066 11.7175 43.2027 11.5846 43.1471C11.4518 43.0915 11.3635 43.0028 11.3198 42.8809C11.2687 42.7558 11.2768 42.6297 11.3441 42.5023C11.4113 42.375 11.5154 42.289 11.6561 42.2442C11.7933 42.1893 11.9283 42.1897 12.0611 42.2453C12.194 42.3008 12.2804 42.3931 12.3203 42.5221C12.3641 42.6441 12.3523 42.7687 12.285 42.896C12.2178 43.0233 12.1174 43.1109 11.984 43.1587Z" fill="white"/>
<path d="M28.2289 33.5744C27.8461 33.9609 27.5025 34.1611 27.1981 34.1749C26.9301 34.197 26.7458 34.1686 26.6451 34.0896L26.4468 33.9341C26.7312 34.652 26.5695 35.3179 25.9616 35.9318C25.2523 36.6481 24.491 36.7732 23.6776 36.3071C23.5908 36.2592 23.5097 36.2057 23.4341 36.1464C23.3523 36.0822 23.2754 36.0018 23.2035 35.905C23.1316 35.8082 23.0924 35.6614 23.0861 35.4645C23.0733 35.0708 23.4049 34.4875 24.0806 33.7147C24.2419 33.518 24.3985 33.3429 24.5505 33.1894C24.7024 33.0359 24.8466 32.9016 24.9831 32.7864L23.4155 31.5572C23.398 31.5637 23.3696 31.5415 23.3305 31.4906C23.2851 31.4348 23.2046 31.3919 23.089 31.3618C22.9727 31.3211 22.8483 31.2943 22.7158 31.2813C22.5833 31.2683 22.424 31.3049 22.2379 31.3912C22.0455 31.4726 21.8451 31.6185 21.6369 31.8288C21.4286 32.0391 21.2278 32.321 21.0345 32.6743C20.8405 33.017 20.7197 33.2858 20.6721 33.4808L20.5722 33.463C20.8151 32.7547 21.1954 32.1391 21.7133 31.6161C22.2931 31.0306 22.7923 30.7353 23.211 30.7304C23.5399 30.7257 23.8051 30.8024 24.0066 30.9604L27.17 33.4409C27.3526 33.5841 27.5252 33.6639 27.6878 33.6803C27.8498 33.6861 27.9677 33.6574 28.0416 33.5941L28.1533 33.5152L28.4151 33.2508L28.4906 33.3101L28.2289 33.5744ZM26.0211 35.7362C26.3195 35.4349 26.4735 35.076 26.4833 34.6596C26.4924 34.2325 26.3984 33.9265 26.2012 33.7416L25.0586 32.8456C24.894 32.9893 24.733 33.1406 24.5753 33.2998C24.4234 33.4533 24.2808 33.6142 24.1477 33.7825C23.7766 34.2589 23.605 34.6242 23.6329 34.8784C23.6608 35.1326 23.8133 35.3682 24.0903 35.5854C24.1406 35.6249 24.2001 35.6665 24.2687 35.7102C24.9867 36.1823 25.5708 36.191 26.0211 35.7362Z" fill="white"/>
<path d="M42.1697 24.3738C41.8759 24.5197 41.612 24.5708 41.3779 24.5271C41.1509 24.4798 40.9955 24.397 40.9119 24.2786L40.7927 24.1111L38.7905 20.919C38.4547 20.3836 38.0932 20.1144 37.7059 20.1112C37.5129 20.1181 37.3054 20.1768 37.0833 20.2871C36.6247 20.5149 36.3211 20.8923 36.1725 21.4194C36.0197 21.9398 36.0282 22.3355 36.1983 22.6066L38.4619 26.2154L37.7096 26.5891L34.5214 21.5062L35.2737 21.1326L36.0006 22.2915C35.9396 21.9395 35.9953 21.5564 36.1676 21.1419C36.3356 20.7207 36.6167 20.4122 37.0108 20.2164C37.4048 20.0207 37.747 19.8996 38.0374 19.8532C38.3307 19.7964 38.575 19.8039 38.7704 19.8757C39.0813 19.9969 39.3409 20.2235 39.5492 20.5555L41.545 23.7374C41.6683 23.9339 41.8034 24.0669 41.9502 24.1361C42.0999 24.1951 42.2199 24.2066 42.3101 24.1707L42.4411 24.1323L42.7743 23.9668L42.8253 24.0481L42.1697 24.3738Z" fill="white"/>
<path d="M53.878 20.5871C53.7764 20.6092 53.6769 20.5941 53.5796 20.5418C53.488 20.48 53.4284 20.399 53.4008 20.2987C53.3711 20.1907 53.3818 20.0944 53.433 20.0096C53.4843 19.9248 53.5607 19.8714 53.6623 19.8492C53.7717 19.8253 53.8722 19.8443 53.9638 19.9061C54.0611 19.9584 54.1235 20.0347 54.1512 20.135C54.1788 20.2353 54.1641 20.3325 54.1072 20.4267C54.056 20.5114 53.9796 20.5649 53.878 20.5871Z" fill="white"/>
<path d="M68.0885 19.2162C66.5936 19.1597 65.5065 18.6944 64.8275 17.8202C64.5861 17.5068 64.3975 17.0954 64.2617 16.586C64.1258 16.0765 64.075 15.4622 64.1093 14.743C64.1436 14.0238 64.2902 13.3849 64.5491 12.8263C64.8164 12.2601 65.1613 11.8288 65.5839 11.5325C66.4032 10.9791 67.3724 10.7235 68.4916 10.7658C68.8114 10.7779 69.1218 10.8176 69.4229 10.885C69.7244 10.9445 69.9498 11.005 70.099 11.0667L70.3108 11.1587L70.2692 11.2772C69.7358 11.0409 69.1414 10.9104 68.4859 10.8857C67.6385 10.8537 66.9178 11.1026 66.3239 11.6325C65.8728 12.0238 65.5404 12.6116 65.3268 13.3961C65.2015 13.8396 65.1235 14.3851 65.0926 15.0323C65.0617 15.6796 65.1251 16.2824 65.2826 16.8407C65.4406 17.391 65.6292 17.8024 65.8484 18.0749C66.0757 18.3476 66.3534 18.5703 66.6815 18.7428C67.01 18.9073 67.2736 19.0053 67.4724 19.0368C67.6711 19.0683 67.9103 19.0894 68.1901 19.0999C68.4779 19.1108 68.803 19.0951 69.1654 19.0527C69.5279 19.0104 69.8021 18.9687 69.9883 18.9277L70.2681 18.8542L70.2984 18.9755C69.6805 19.1683 68.9439 19.2485 68.0885 19.2162Z" fill="white"/>
<path d="M85.1792 22.0095C84.3919 21.7167 83.8529 21.261 83.5621 20.6424C83.2713 20.0239 83.3385 19.262 83.7637 18.3569C84.1889 17.4518 84.7738 16.8443 85.5184 16.5344C86.2704 16.2272 87.0401 16.2201 87.8274 16.5129C88.6222 16.8086 89.165 17.2657 89.4557 17.8842C89.7465 18.5028 89.6793 19.2646 89.2541 20.1697C88.8289 21.0748 88.2403 21.6809 87.4882 21.9881C86.7436 22.2981 85.974 22.3052 85.1792 22.0095ZM87.8091 16.6082C87.2392 16.3962 86.6512 16.4667 86.045 16.8196C85.4422 17.1653 84.935 17.7762 84.5234 18.6523C84.1152 19.5212 83.9849 20.2298 84.1326 20.7781C84.2802 21.3263 84.6389 21.7065 85.2088 21.9185C85.7786 22.1304 86.3649 22.0636 86.9677 21.7179C87.5739 21.365 88.0811 20.7541 88.4893 19.8852C88.9009 19.0091 89.0329 18.2969 88.8853 17.7486C88.7376 17.2003 88.3789 16.8202 87.8091 16.6082Z" fill="white"/>
<path d="M102.216 30.9907C101.96 30.785 101.815 30.5765 101.781 30.3652C101.753 30.1588 101.787 30.0027 101.883 29.8967L102.019 29.7461L104.705 27.1037C105.156 26.6604 105.316 26.2743 105.186 25.9452C105.112 25.7837 104.979 25.6253 104.786 25.4698C104.387 25.1487 103.883 25.0033 103.274 25.0336C102.671 25.0583 102.256 25.1828 102.028 25.4072L98.9907 28.3947L98.3364 27.8679L102.614 23.6603L103.268 24.187L102.293 25.1463C102.644 24.9904 103.068 24.924 103.566 24.9472C104.069 24.9647 104.493 25.1115 104.835 25.3874C105.178 25.6633 105.424 25.9174 105.573 26.1496C105.734 26.3813 105.81 26.5906 105.802 26.7775C105.781 27.0768 105.631 27.3639 105.351 27.6388L102.673 30.2728C102.508 30.4355 102.414 30.5893 102.391 30.7343C102.381 30.8786 102.41 30.9837 102.479 31.0495L102.565 31.1491L102.854 31.3824L102.786 31.4497L102.216 30.9907Z" fill="white"/>
<path d="M115.796 36.4153L115.881 36.3714L116.018 36.5827L117.085 36.0336L117.543 36.7379L116.476 37.287L117.477 38.8265L117.391 38.8704L116.391 37.331L112.507 39.3297C112.045 39.5677 111.741 39.7867 111.596 39.9868C111.455 40.1936 111.485 40.4512 111.685 40.7598C111.89 41.0751 112.165 41.3589 112.509 41.6113L112.443 41.6854C112.09 41.4196 111.772 41.0687 111.489 40.6327C111.21 40.2034 111.093 39.8338 111.138 39.524C111.191 39.2105 111.498 38.9091 112.06 38.6199L115.933 36.6266L115.796 36.4153Z" fill="white"/>
<path d="M117.371 52.1479C117.274 51.8346 117.269 51.5768 117.357 51.3743C117.447 51.1795 117.56 51.061 117.698 51.019L117.892 50.9588L122.891 49.7287L123.141 50.5308L118.142 51.7609C117.916 51.8164 117.755 51.9014 117.656 52.016C117.568 52.1364 117.534 52.2395 117.552 52.3255L117.571 52.4687L117.682 52.824L117.589 52.8469L117.371 52.1479ZM124.218 49.4763C124.282 49.3617 124.385 49.2872 124.525 49.2528C124.664 49.2183 124.795 49.2355 124.917 49.3042C125.046 49.3711 125.132 49.4732 125.175 49.6108C125.218 49.7483 125.203 49.8753 125.13 49.9918C125.068 50.1141 124.967 50.1924 124.827 50.2268C124.687 50.2612 124.555 50.2402 124.431 50.1639C124.31 50.0951 124.227 49.992 124.185 49.8545C124.142 49.717 124.153 49.5909 124.218 49.4763Z" fill="white"/>
<path d="M119.393 66.4823C119.397 66.1543 119.473 65.9032 119.62 65.7289C119.766 65.5626 119.911 65.4763 120.055 65.4699L120.26 65.4603L124.027 65.504C124.659 65.5114 125.066 65.3521 125.247 65.0261C125.329 64.8591 125.372 64.6516 125.376 64.4036C125.383 63.8917 125.186 63.4293 124.784 63.0166C124.39 62.604 124.033 62.3959 123.713 62.3922L119.453 62.3427L119.466 61.5028L125.465 61.5725L125.453 62.4124L124.085 62.3965C124.427 62.5365 124.743 62.7922 125.034 63.1636C125.332 63.535 125.478 63.9408 125.472 64.3807C125.466 64.8207 125.416 65.1761 125.324 65.4471C125.24 65.7261 125.121 65.9287 124.967 66.055C124.717 66.2521 124.395 66.3483 124.003 66.3438L120.247 66.3002C120.015 66.2975 119.835 66.3394 119.705 66.4259C119.584 66.5205 119.519 66.6158 119.509 66.7117L119.483 66.8434L119.478 67.2153L119.382 67.2142L119.393 66.4823Z" fill="white"/>
<path d="M120.029 78.8429C119.082 78.5465 118.324 78.489 117.755 78.6702C117.183 78.8589 116.792 79.2174 116.583 79.7456C116.289 80.4896 116.142 81.1876 116.142 81.8396L116.048 81.848C116.047 81.1787 116.195 80.4683 116.492 79.7169C116.786 78.973 117.255 78.4383 117.898 78.1131C118.541 77.7878 119.34 77.7745 120.295 78.0733C121.249 78.3721 121.892 78.8494 122.225 79.5054C122.558 80.1613 122.574 80.8687 122.274 81.6275C122.033 82.2376 121.643 82.6924 121.104 82.9919C120.565 83.2914 119.929 83.3264 119.196 83.0969C119.158 83.085 119.12 83.073 119.082 83.0611L120.657 79.0771C120.46 78.9903 120.25 78.9122 120.029 78.8429ZM119.474 82.3309C120.209 82.5529 120.806 82.585 121.263 82.4271C121.72 82.2693 122.032 81.9783 122.2 81.5542C122.368 81.1302 122.327 80.691 122.078 80.2367C121.825 79.7898 121.381 79.4166 120.744 79.117L119.474 82.3309Z" fill="white"/>
<path d="M107.312 94.048C107.529 93.8016 107.754 93.6534 107.989 93.6034C108.218 93.5594 108.394 93.5756 108.518 93.6518L108.693 93.7593L111.786 95.9112C112.305 96.2721 112.745 96.3796 113.106 96.2337C113.282 96.1532 113.452 96.0198 113.616 95.8335C113.954 95.4488 114.09 94.9867 114.024 94.4472C113.965 93.9123 113.805 93.5534 113.542 93.3707L110.045 90.9378L110.599 90.3068L115.525 93.7333L114.97 94.3644L113.847 93.5831C114.04 93.8818 114.136 94.2538 114.136 94.6993C114.143 95.1494 114.001 95.5397 113.711 95.8703C113.42 96.2008 113.149 96.4431 112.897 96.5972C112.647 96.7619 112.417 96.8489 112.208 96.8582C111.872 96.8669 111.544 96.7592 111.222 96.5354L108.139 94.3903C107.948 94.2578 107.771 94.1881 107.608 94.1811C107.446 94.1847 107.33 94.2203 107.26 94.2878L107.154 94.3733L106.908 94.6527L106.829 94.5979L107.312 94.048Z" fill="white"/>
<path d="M101.966 106.075L102.024 106.152L101.809 106.282L102.536 107.236L101.817 107.67L101.09 106.716L99.5179 107.665L99.4597 107.589L101.031 106.64L98.383 103.166C98.0678 102.753 97.7918 102.483 97.5553 102.356C97.3119 102.234 97.0327 102.267 96.7177 102.458C96.3958 102.652 96.1165 102.909 95.88 103.228L95.791 103.17C96.0412 102.843 96.3889 102.545 96.8341 102.276C97.2724 102.011 97.6642 101.896 98.0094 101.929C98.3596 101.968 98.7262 102.239 99.1094 102.742L101.751 106.206L101.966 106.075Z" fill="white"/>
<path d="M80.6947 108.845C81.2211 108.708 81.6136 108.713 81.8722 108.86C82.1053 108.98 82.2418 109.102 82.2819 109.223L82.3607 109.462C82.5173 108.687 83.0137 108.191 83.8497 107.973C84.8251 107.718 85.5212 108.007 85.938 108.839C85.9835 108.926 86.0213 109.015 86.0513 109.107C86.0839 109.205 86.1034 109.316 86.11 109.438C86.1165 109.56 86.0688 109.709 85.9667 109.884C85.7627 110.234 85.1713 110.57 84.1927 110.891C83.9525 110.978 83.7279 111.049 83.5189 111.104C83.3099 111.158 83.1177 111.2 82.9424 111.229L83.5654 113.121C83.5834 113.125 83.5946 113.159 83.5992 113.224C83.6062 113.296 83.6492 113.376 83.7282 113.462C83.8019 113.559 83.8899 113.647 83.9921 113.728C84.0943 113.808 84.2457 113.86 84.4462 113.882C84.6493 113.911 84.894 113.889 85.1805 113.814C85.4669 113.739 85.7861 113.598 86.1381 113.391C86.4849 113.193 86.7311 113.022 86.8766 112.877L86.9493 112.944C86.3629 113.436 85.7137 113.774 85.0015 113.96C84.2041 114.168 83.6314 114.164 83.2834 113.95C83.0096 113.782 82.8326 113.576 82.7526 113.333L81.4953 109.515C81.4228 109.294 81.3239 109.135 81.1987 109.035C81.0683 108.945 80.9554 108.909 80.86 108.926L80.7247 108.936L80.3648 109.03L80.3347 108.939L80.6947 108.845ZM83.694 108.112C83.2837 108.219 82.961 108.452 82.7259 108.81C82.4856 109.178 82.3964 109.494 82.4583 109.759L82.9124 111.138C83.1264 111.099 83.3418 111.051 83.5585 110.994C83.7675 110.94 83.9728 110.874 84.1743 110.797C84.7401 110.575 85.0808 110.346 85.1963 110.109C85.3118 109.873 85.3145 109.588 85.2044 109.253C85.1844 109.192 85.158 109.125 85.1252 109.051C84.7903 108.264 84.3132 107.951 83.694 108.112Z" fill="white"/>
<path d="M66.9869 110.441C67.6909 110.439 68.1353 110.623 68.3203 110.99C68.3605 111.07 68.3806 111.142 68.3808 111.206L68.4011 119.426L67.5611 119.428L67.541 111.292C67.5404 111.06 67.496 110.88 67.4077 110.752C67.3114 110.632 67.2152 110.568 67.1192 110.561L66.9871 110.537L66.6151 110.538L66.6149 110.442L66.9869 110.441Z" fill="white"/>
<path d="M37 38.2381L67.3729 33L93 38.2381V88H37V38.2381Z" stroke="#F5F5F5"/>
<line x1="65.5" y1="33" x2="65.5" y2="88" stroke="#F5F5F5"/>
<rect x="37.5" y="60.5" width="55" height="27" stroke="#F5F5F5"/>
<path d="M52.492 44.6C52.644 44.752 52.72 44.948 52.72 45.188C52.72 45.388 52.676 45.592 52.588 45.8L49.516 53L49.384 53.06L46.36 44.6H47.38L49.888 51.704L52.444 45.8C52.532 45.6 52.576 45.392 52.576 45.176C52.576 44.96 52.516 44.792 52.396 44.672L52.492 44.6Z" fill="white"/>
<path d="M80.788 53.048C79.292 53.048 78.184 52.624 77.464 51.776C77.208 51.472 77 51.068 76.84 50.564C76.68 50.06 76.6 49.448 76.6 48.728C76.6 48.008 76.716 47.364 76.948 46.796C77.188 46.22 77.512 45.776 77.92 45.464C78.712 44.88 79.668 44.588 80.788 44.588C81.108 44.588 81.42 44.616 81.724 44.672C82.028 44.72 82.256 44.772 82.408 44.828L82.624 44.912L82.588 45.032C82.044 44.816 81.444 44.708 80.788 44.708C79.94 44.708 79.232 44.984 78.664 45.536C78.232 45.944 77.928 46.544 77.752 47.336C77.648 47.784 77.596 48.332 77.596 48.98C77.596 49.628 77.688 50.228 77.872 50.78C78.056 51.324 78.264 51.728 78.496 51.992C78.736 52.256 79.024 52.468 79.36 52.628C79.696 52.78 79.964 52.868 80.164 52.892C80.364 52.916 80.604 52.928 80.884 52.928C81.172 52.928 81.496 52.9 81.856 52.844C82.216 52.788 82.488 52.736 82.672 52.688L82.948 52.604L82.984 52.724C82.376 52.94 81.644 53.048 80.788 53.048Z" fill="white"/>
<path d="M49.444 68.096H48.88V73.904H49.6V74H47.2V73.904H47.92V68.096H47.356V68H49.444V68.096ZM54.6085 71.888C54.5125 72.08 54.3365 72.264 54.0805 72.44C53.8245 72.608 53.4485 72.692 52.9525 72.692C52.4645 72.692 51.9845 72.512 51.5125 72.152C51.0485 71.792 50.8165 71.256 50.8165 70.544C50.8165 69.832 51.0405 69.22 51.4885 68.708C51.9365 68.196 52.5805 67.94 53.4205 67.94C54.9565 67.94 55.7245 68.88 55.7245 70.76C55.7245 71.64 55.4965 72.444 55.0405 73.172C54.5205 74.012 53.7445 74.592 52.7125 74.912C52.1445 75.096 51.5045 75.188 50.7925 75.188L50.8045 75.104C52.2205 75.104 53.2525 74.648 53.9005 73.736C54.2525 73.24 54.4885 72.624 54.6085 71.888ZM54.6685 71.588C54.7405 71.092 54.7765 70.636 54.7765 70.22C54.7765 69.516 54.6405 68.976 54.3685 68.6C54.1045 68.224 53.7565 68.036 53.3245 68.036C52.8925 68.036 52.5245 68.276 52.2205 68.756C51.9245 69.236 51.7765 69.836 51.7765 70.556C51.7765 71.268 51.9125 71.788 52.1845 72.116C52.4645 72.436 52.8005 72.596 53.1925 72.596C53.4565 72.596 53.7085 72.52 53.9485 72.368C54.1965 72.216 54.3765 72.064 54.4885 71.912C54.6085 71.752 54.6685 71.644 54.6685 71.588Z" fill="white"/>
<path d="M79.444 71.096H78.88V76.904H79.6V77H77.2V76.904H77.92V71.096H77.356V71H79.444V71.096ZM81.0297 70.988H84.9777C83.3617 74.796 82.2577 77.2 81.6657 78.2L81.5697 78.164C82.2017 77.076 83.1657 75 84.4617 71.936L81.0297 71.924V70.988Z" fill="white"/>
</svg>
