<svg width="792" height="811" viewBox="0 0 792 811" fill="none" xmlns="http://www.w3.org/2000/svg">
<path d="M334.356 452.621C210.085 635.153 144.016 519.997 142.429 517.174C142.38 517.085 142.422 517.156 142.368 517.071C140.782 514.596 82.4793 421.76 235.829 386.735C240.66 385.632 240.27 373.744 235.376 372.962C82.7921 348.608 142.357 251.593 143.811 249.265C143.861 249.185 143.816 249.261 143.862 249.178C145.318 246.527 212.659 126.138 335.175 300.15M336.143 451.547C230.532 647.528 372.665 642.787 372.665 642.787" stroke="#89654E" stroke-width="61" stroke-linecap="round"/>
<path d="M426.205 451.732C514.362 648.103 372.658 642.783 372.658 642.783" stroke="#89654E" stroke-width="61" stroke-linecap="round"/>
<path d="M335.172 300.156C236.789 111.463 374.727 106.988 377.747 106.913C377.841 106.91 377.753 106.915 377.847 106.907C380.86 106.664 518.733 96.5768 425.32 295.398" stroke="#89654E" stroke-width="61" stroke-linecap="round" stroke-linejoin="round"/>
<path d="M578.162 198.121C546.181 186.12 495.198 195.696 425.841 296.279M580.807 540.227C548.716 556.68 496.094 554.388 426.678 451.448" stroke="#89654E" stroke-width="61" stroke-linecap="round"/>
<circle cx="671.501" cy="500.5" r="66.5" transform="rotate(-42.8554 671.501 500.5)" fill="#89654E"/>
<path d="M330.881 437.433C206.611 619.966 140.541 504.809 138.955 501.986C138.905 501.898 138.948 501.968 138.893 501.883C137.308 499.409 79.0047 406.572 232.354 371.548C237.185 370.444 236.795 358.556 231.902 357.775C79.3175 333.421 138.883 236.405 140.336 234.078C140.386 233.998 140.342 234.073 140.387 233.991C141.844 231.34 209.185 110.951 331.7 284.963M332.668 436.36C227.057 632.341 369.19 627.6 369.19 627.6" stroke="#D6A688" stroke-width="3" stroke-linecap="round"/>
<path d="M578.677 187.541C546.696 175.54 495.713 185.116 426.357 285.699M581.322 529.647C549.231 546.1 496.61 543.808 427.193 440.868" stroke="#D6A688" stroke-width="15" stroke-linecap="round"/>
<path d="M427.203 420.812C515.36 617.183 373.656 611.863 373.656 611.863" stroke="#D6A688" stroke-width="5" stroke-linecap="round"/>
<path d="M336.17 269.236C237.787 80.5432 375.725 76.068 378.745 75.9928C378.839 75.9905 378.751 75.9951 378.845 75.9875C381.858 75.7443 519.731 65.6569 426.318 264.478" stroke="#D6A688" stroke-width="5" stroke-linecap="round" stroke-linejoin="round"/>
<path d="M337.918 457.783C213.648 640.316 147.578 525.159 145.992 522.336C145.942 522.247 145.985 522.318 145.93 522.233C144.345 519.758 86.0418 426.922 239.391 391.897C244.222 390.794 243.832 378.906 238.939 378.125C86.3546 353.77 145.92 256.755 147.373 254.427C147.423 254.347 147.379 254.423 147.424 254.34C148.881 251.689 216.222 131.3 338.737 305.312M339.705 456.71C234.095 652.691 376.227 647.949 376.227 647.949" stroke="#EBD8CC" stroke-width="13" stroke-linecap="round"/>
<path d="M429.768 456.895C517.925 653.265 376.22 647.945 376.22 647.945" stroke="#EBD8CC" stroke-width="13" stroke-linecap="round"/>
<path d="M338.735 305.318C240.352 116.625 378.289 112.15 381.309 112.075C381.403 112.072 381.316 112.077 381.41 112.07C384.423 111.826 522.296 101.739 428.883 300.56" stroke="#EBD8CC" stroke-width="13" stroke-linecap="round" stroke-linejoin="round"/>
<path d="M581.724 203.283C549.743 191.282 498.76 200.859 429.404 301.441M584.369 545.389C552.278 561.842 499.657 559.55 430.24 456.61" stroke="#EBD8CC" stroke-width="13" stroke-linecap="round"/>
<circle cx="675.063" cy="505.662" r="60" transform="rotate(-42.8554 675.063 505.662)" fill="#806C60" stroke="#EBD8CC" stroke-width="13"/>
<path d="M344.918 442.697C220.648 625.23 154.578 510.073 152.992 507.25C152.942 507.162 152.985 507.232 152.93 507.147C151.345 504.672 93.0418 411.836 246.391 376.812C251.222 375.708 250.832 363.82 245.939 363.039C93.3546 338.684 152.92 241.669 154.373 239.341C154.423 239.261 154.379 239.337 154.424 239.255C155.881 236.604 223.222 116.214 345.737 290.226M346.705 441.624C241.095 637.605 383.227 632.863 383.227 632.863" stroke="white" stroke-width="6" stroke-linecap="round"/>
<path d="M436.768 441.809C524.925 638.179 383.22 632.86 383.22 632.86" stroke="white" stroke-width="6" stroke-linecap="round"/>
<path d="M345.735 290.232C247.352 101.539 385.289 97.0641 388.309 96.9889C388.403 96.9866 388.316 96.9912 388.41 96.9836C391.423 96.7404 529.296 86.653 435.883 285.474" stroke="white" stroke-width="6" stroke-linecap="round" stroke-linejoin="round"/>
<path d="M588.724 188.197C556.743 176.196 505.76 185.773 436.404 286.355M591.369 530.303C559.278 546.756 506.657 544.464 437.24 441.524" stroke="white" stroke-width="6" stroke-linecap="round"/>
</svg>
