<svg width="28" height="29" viewBox="0 0 768 779" fill="none" xmlns="http://www.w3.org/2000/svg">
<path d="M321.356 426.621C197.085 609.153 131.016 493.997 129.429 491.174C129.38 491.085 129.422 491.156 129.368 491.071C127.782 488.596 69.4793 395.76 222.829 360.735C227.66 359.632 227.27 347.744 222.376 346.962C69.7921 322.608 129.357 225.593 130.811 223.265C130.861 223.185 130.816 223.261 130.862 223.178C132.318 220.527 199.659 100.138 322.175 274.15M323.143 425.547C217.532 621.528 359.665 616.787 359.665 616.787" stroke="#89654E" stroke-width="21" stroke-linecap="round"/>
<path d="M413.205 425.732C501.362 622.103 359.658 616.783 359.658 616.783" stroke="#89654E" stroke-width="21" stroke-linecap="round"/>
<path d="M322.172 274.156C223.789 85.4631 361.727 80.9879 364.747 80.9127C364.841 80.9104 364.753 80.915 364.847 80.9074C367.86 80.6642 505.733 70.5768 412.32 269.398" stroke="#89654E" stroke-width="21" stroke-linecap="round" stroke-linejoin="round"/>
<path d="M565.162 172.121C533.181 160.12 482.198 169.696 412.841 270.279M567.807 514.227C535.716 530.68 483.094 528.388 413.678 425.448" stroke="#89654E" stroke-width="21" stroke-linecap="round"/>
<circle cx="658.501" cy="474.5" r="66.5" transform="rotate(-42.8554 658.501 474.5)" fill="#89654E"/>
</svg>
