<svg width="300" height="180" viewBox="0 0 300 180" fill="none" xmlns="http://www.w3.org/2000/svg">
<path d="M85.9049 107.951C50.8514 154.614 33.2276 122.161 33.2276 122.161C33.2276 122.161 13.1465 90.989 73.9403 87.7614C13.3152 82.4158 34.6195 51.9652 34.6195 51.9652C34.6195 51.9652 53.5162 20.1487 86.6973 68.0002M86.3971 107.695C56.8162 157.578 95.6605 158.332 95.6605 158.332" stroke="#232e22" stroke-width="4" stroke-linecap="round"/>
<path d="M110.999 109.008C134.348 161.714 95.6587 158.33 95.6587 158.33" stroke="#232e22" stroke-width="4" stroke-linecap="round"/>
<path d="M86.6968 68.0014C60.2368 16.6032 99.0616 17.9509 99.0616 17.9509C99.0616 17.9509 137.889 16.6623 111.34 68.0203" stroke="#232e22" stroke-width="4" stroke-linecap="round" stroke-linejoin="round"/>
<path d="M153.455 44.6708C144.764 41.0762 130.801 42.8703 111.479 68.2589M152.902 134.374C144.074 138.235 129.708 136.896 111.129 108.94" stroke="#232e22" stroke-width="4" stroke-linecap="round"/>
<path d="M147.686 93.5338C147.187 93.5338 146.791 93.4318 146.496 93.2278C146.201 93.0238 146.054 92.7631 146.054 92.4458C146.054 92.0378 146.213 91.5844 146.53 91.0858C146.847 90.5644 147.233 90.0204 147.686 89.4538C148.162 88.8871 148.627 88.3431 149.08 87.8218C149.556 87.2778 149.953 86.7904 150.27 86.3598C150.587 85.9291 150.746 85.5778 150.746 85.3058C150.746 85.1244 150.701 84.9998 150.61 84.9318C150.519 84.8638 150.361 84.8298 150.134 84.8298C149.794 84.8298 149.341 85.0111 148.774 85.3738C148.23 85.7138 147.618 86.1898 146.938 86.8018C146.281 87.3911 145.601 88.0598 144.898 88.8078C144.218 89.5331 143.561 90.2811 142.926 91.0518C142.291 91.8224 141.747 92.5478 141.294 93.2278C141.022 93.1371 140.716 93.1031 140.376 93.1258C140.036 93.1484 139.673 93.1938 139.288 93.2618C139.809 92.6044 140.399 91.8791 141.056 91.0858C141.736 90.2698 142.382 89.4764 142.994 88.7058C143.606 87.9351 144.116 87.2438 144.524 86.6318C144.932 85.9971 145.136 85.5324 145.136 85.2378C145.136 85.0791 145.068 84.9771 144.932 84.9318C144.819 84.8638 144.649 84.8298 144.422 84.8298C143.946 84.8298 143.334 85.1131 142.586 85.6798C141.838 86.2464 141.045 86.9718 140.206 87.8558C139.367 88.7171 138.54 89.6351 137.724 90.6098C136.931 91.5618 136.228 92.4344 135.616 93.2278C135.389 93.1598 135.117 93.1258 134.8 93.1258C134.483 93.1031 134.097 93.1484 133.644 93.2618C134.483 92.0151 135.31 90.8364 136.126 89.7258C136.965 88.5924 137.656 87.6178 138.2 86.8018C138.767 85.9858 139.05 85.4418 139.05 85.1698C139.05 85.1018 139.027 85.0564 138.982 85.0338C138.959 84.9884 138.914 84.9658 138.846 84.9658C138.619 84.9658 138.302 85.1811 137.894 85.6118C137.509 86.0424 137.101 86.5298 136.67 87.0738C136.239 87.6178 135.854 88.0824 135.514 88.4678L135.208 88.2638C135.435 88.0144 135.707 87.6858 136.024 87.2778C136.341 86.8471 136.681 86.4278 137.044 86.0198C137.429 85.5891 137.815 85.2264 138.2 84.9318C138.585 84.6371 138.959 84.4898 139.322 84.4898C139.594 84.4898 139.821 84.5691 140.002 84.7278C140.206 84.8638 140.308 85.0451 140.308 85.2718C140.308 85.5664 140.217 85.8951 140.036 86.2578C139.855 86.5978 139.605 86.9944 139.288 87.4478C138.971 87.8784 138.608 88.3544 138.2 88.8758C137.815 89.3971 137.407 89.9751 136.976 90.6098L137.044 90.7458C137.497 90.2698 137.962 89.7484 138.438 89.1818C138.937 88.6151 139.447 88.0598 139.968 87.5158C140.489 86.9718 141.011 86.4731 141.532 86.0198C142.053 85.5664 142.586 85.2038 143.13 84.9318C143.674 84.6598 144.207 84.5238 144.728 84.5238C145.272 84.5238 145.646 84.6598 145.85 84.9318C146.054 85.2038 146.156 85.4644 146.156 85.7138C146.156 86.0764 146.088 86.4391 145.952 86.8018C145.816 87.1644 145.646 87.5158 145.442 87.8558C145.238 88.1731 145.034 88.4678 144.83 88.7398C144.626 88.9891 144.445 89.1931 144.286 89.3518C144.127 89.5104 144.037 89.6124 144.014 89.6578L143.81 89.4878C143.969 89.3291 144.218 89.0571 144.558 88.6718C144.898 88.2864 145.295 87.8671 145.748 87.4138C146.224 86.9378 146.723 86.4844 147.244 86.0538C147.765 85.6004 148.287 85.2378 148.808 84.9658C149.329 84.6711 149.828 84.5238 150.304 84.5238C150.871 84.5238 151.256 84.6711 151.46 84.9658C151.687 85.2378 151.8 85.4871 151.8 85.7138C151.8 86.2124 151.641 86.7678 151.324 87.3798C151.007 87.9691 150.61 88.5698 150.134 89.1818C149.658 89.7711 149.182 90.3264 148.706 90.8478C148.23 91.3691 147.833 91.8111 147.516 92.1738C147.199 92.5138 147.04 92.7291 147.04 92.8198C147.04 93.0238 147.278 93.1258 147.754 93.1258C148.366 93.1258 148.978 92.9331 149.59 92.5478C150.225 92.1624 150.825 91.6978 151.392 91.1538C151.959 90.5871 152.469 90.0318 152.922 89.4878C153.398 88.9211 153.783 88.4791 154.078 88.1618L154.35 88.3658C154.078 88.6604 153.693 89.0911 153.194 89.6578C152.718 90.2244 152.174 90.8138 151.562 91.4258C150.95 92.0151 150.315 92.5138 149.658 92.9218C149.001 93.3298 148.343 93.5338 147.686 93.5338ZM153.288 93.5338C152.97 93.5338 152.619 93.4431 152.234 93.2618C151.826 93.1031 151.622 92.8311 151.622 92.4458C151.622 91.9698 151.837 91.3691 152.268 90.6438C152.698 89.9184 153.231 89.1704 153.866 88.3998C154.478 87.6291 155.078 86.9038 155.668 86.2238C156.257 85.5438 156.699 85.0111 156.994 84.6258C157.243 84.6484 157.538 84.6598 157.878 84.6598C158.24 84.6598 158.558 84.6484 158.83 84.6258C158.512 85.0111 158.093 85.4984 157.572 86.0878C157.073 86.6771 156.54 87.3118 155.974 87.9918C155.43 88.6491 154.897 89.2951 154.376 89.9298C153.877 90.5644 153.469 91.1311 153.152 91.6298C152.834 92.1284 152.676 92.4911 152.676 92.7178C152.676 92.8764 152.744 92.9898 152.88 93.0578C153.016 93.1258 153.242 93.1598 153.56 93.1598C154.104 93.1598 154.704 92.9558 155.362 92.5478C156.042 92.1171 156.699 91.6071 157.334 91.0178C157.968 90.4284 158.535 89.8731 159.034 89.3518C159.532 88.8078 159.884 88.4111 160.088 88.1618L160.36 88.3998C160.156 88.6264 159.804 89.0231 159.306 89.5898C158.83 90.1338 158.252 90.7118 157.572 91.3238C156.914 91.9358 156.212 92.4571 155.464 92.8878C154.738 93.3184 154.013 93.5338 153.288 93.5338ZM160.088 82.0418C159.816 82.0418 159.612 81.9624 159.476 81.8038C159.34 81.6224 159.272 81.4184 159.272 81.1918C159.272 80.9424 159.408 80.6818 159.68 80.4098C159.952 80.1378 160.235 80.0018 160.53 80.0018C160.847 80.0018 161.074 80.0924 161.21 80.2738C161.346 80.4324 161.414 80.5911 161.414 80.7498C161.414 81.0898 161.278 81.3958 161.006 81.6678C160.734 81.9171 160.428 82.0418 160.088 82.0418ZM166.606 87.1418C166.289 87.1418 166.051 87.0738 165.892 86.9378C165.756 86.7791 165.688 86.5978 165.688 86.3938C165.688 86.1898 165.767 85.9971 165.926 85.8158C166.107 85.6118 166.345 85.5098 166.64 85.5098C166.821 85.5098 166.98 85.5324 167.116 85.5778C167.252 85.6231 167.32 85.6458 167.32 85.6458C167.343 85.4191 167.286 85.2264 167.15 85.0678C167.014 84.8864 166.753 84.7958 166.368 84.7958C166.005 84.7958 165.563 84.9544 165.042 85.2718C164.521 85.5891 163.977 86.0084 163.41 86.5298C162.866 87.0511 162.345 87.6178 161.846 88.2298C161.37 88.8418 160.985 89.4651 160.69 90.0998C160.395 90.7118 160.248 91.2671 160.248 91.7658C160.248 92.3324 160.429 92.7064 160.792 92.8878C161.155 93.0691 161.551 93.1598 161.982 93.1598C162.798 93.1598 163.603 92.9671 164.396 92.5818C165.189 92.1738 165.915 91.6864 166.572 91.1198C167.252 90.5304 167.83 89.9638 168.306 89.4198C168.782 88.8758 169.122 88.4564 169.326 88.1618L169.632 88.3658C169.451 88.6378 169.111 89.0571 168.612 89.6238C168.113 90.1904 167.501 90.7798 166.776 91.3918C166.073 91.9811 165.291 92.4911 164.43 92.9218C163.569 93.3298 162.662 93.5338 161.71 93.5338C160.939 93.5338 160.293 93.3638 159.772 93.0238C159.228 92.6611 158.956 92.1058 158.956 91.3578C158.956 90.7231 159.137 90.0204 159.5 89.2498C159.863 88.4564 160.361 87.7084 160.996 87.0058C161.653 86.2804 162.424 85.6911 163.308 85.2378C164.215 84.7618 165.212 84.5238 166.3 84.5238C166.731 84.5238 167.105 84.6144 167.422 84.7958C167.739 84.9771 167.898 85.2944 167.898 85.7478C167.898 86.1558 167.751 86.4958 167.456 86.7678C167.184 87.0171 166.901 87.1418 166.606 87.1418ZM180.256 72.6238C180.528 72.6691 180.811 72.7031 181.106 72.7258C181.423 72.7258 181.74 72.6918 182.058 72.6238C182.035 72.6464 181.842 72.9184 181.48 73.4398C181.117 73.9384 180.618 74.6184 179.984 75.4798C179.372 76.3184 178.68 77.2704 177.91 78.3358C177.162 79.4011 176.38 80.5004 175.564 81.6338C174.77 82.7444 173.988 83.8324 173.218 84.8978C172.47 85.9404 171.778 86.8924 171.144 87.7538C170.532 88.6151 170.044 89.3064 169.682 89.8278C169.319 90.3491 169.126 90.6211 169.104 90.6438C169.104 90.6438 169.115 90.6664 169.138 90.7118C169.16 90.7344 169.172 90.7571 169.172 90.7798C169.738 90.1678 170.35 89.4991 171.008 88.7738C171.665 88.0484 172.334 87.3684 173.014 86.7338C173.694 86.0764 174.362 85.5438 175.02 85.1358C175.7 84.7278 176.323 84.5238 176.89 84.5238C177.615 84.5238 178.08 84.6938 178.284 85.0338C178.51 85.3511 178.624 85.6344 178.624 85.8838C178.624 86.3598 178.465 86.8811 178.148 87.4478C177.83 88.0144 177.434 88.5811 176.958 89.1478C176.504 89.7144 176.04 90.2471 175.564 90.7458C175.11 91.2218 174.725 91.6411 174.408 92.0038C174.09 92.3664 173.932 92.6271 173.932 92.7858C173.932 92.9671 174.068 93.0804 174.34 93.1258C174.634 93.1484 174.872 93.1598 175.054 93.1598C175.575 93.1598 176.142 92.9671 176.754 92.5818C177.366 92.1964 177.966 91.7204 178.556 91.1538C179.145 90.5871 179.678 90.0318 180.154 89.4878C180.63 88.9438 180.992 88.5131 181.242 88.1958L181.514 88.3998C181.287 88.6718 180.947 89.0911 180.494 89.6578C180.04 90.2018 179.496 90.7798 178.862 91.3918C178.25 91.9811 177.581 92.4911 176.856 92.9218C176.13 93.3298 175.371 93.5338 174.578 93.5338C174.283 93.5338 173.943 93.4544 173.558 93.2958C173.172 93.1598 172.98 92.8538 172.98 92.3778C172.98 91.9924 173.127 91.5504 173.422 91.0518C173.739 90.5304 174.124 89.9978 174.578 89.4538C175.031 88.8871 175.484 88.3431 175.938 87.8218C176.414 87.3004 176.799 86.8244 177.094 86.3938C177.411 85.9404 177.57 85.5778 177.57 85.3058C177.57 85.0111 177.354 84.8638 176.924 84.8638C176.38 84.8638 175.722 85.1244 174.952 85.6458C174.204 86.1444 173.41 86.8131 172.572 87.6518C171.733 88.4904 170.894 89.3971 170.056 90.3718C169.24 91.3464 168.48 92.3098 167.778 93.2618C167.483 93.2164 167.154 93.1938 166.792 93.1938C166.429 93.1938 166.089 93.2391 165.772 93.3298C165.772 93.3298 165.976 93.0464 166.384 92.4798C166.792 91.8904 167.347 91.1084 168.05 90.1338C168.73 89.1364 169.5 88.0258 170.362 86.8018C171.223 85.5551 172.107 84.2858 173.014 82.9938C173.92 81.6791 174.804 80.4098 175.666 79.1858C176.527 77.9391 177.298 76.8284 177.978 75.8538C178.68 74.8564 179.236 74.0744 179.644 73.5078C180.052 72.9184 180.256 72.6238 180.256 72.6238ZM182.759 93.5338C181.694 93.5338 180.991 93.2958 180.651 92.8198C180.311 92.3211 180.141 91.7998 180.141 91.2558C180.141 90.3264 180.379 89.4651 180.855 88.6718C181.331 87.8558 181.943 87.1304 182.691 86.4958C183.439 85.8611 184.21 85.3738 185.003 85.0338C185.819 84.6711 186.544 84.4898 187.179 84.4898C187.632 84.4898 187.995 84.5578 188.267 84.6938C188.539 84.8071 188.675 85.0564 188.675 85.4418C188.675 85.8044 188.46 86.1898 188.029 86.5978C187.598 87.0058 187.054 87.4024 186.397 87.7878C185.74 88.1504 185.048 88.4904 184.323 88.8078C183.62 89.1024 182.974 89.3404 182.385 89.5218C181.796 89.7031 181.365 89.7938 181.093 89.7938C181.093 89.7938 181.093 89.7371 181.093 89.6238C181.093 89.4878 181.093 89.4198 181.093 89.4198C181.297 89.4424 181.648 89.3744 182.147 89.2158C182.668 89.0571 183.246 88.8531 183.881 88.6038C184.516 88.3318 185.128 88.0258 185.717 87.6858C186.329 87.3458 186.828 86.9831 187.213 86.5978C187.621 86.2124 187.825 85.8384 187.825 85.4758C187.825 85.2944 187.768 85.1358 187.655 84.9998C187.564 84.8638 187.394 84.7958 187.145 84.7958C186.782 84.7958 186.34 84.9771 185.819 85.3398C185.32 85.6798 184.81 86.1331 184.289 86.6998C183.768 87.2664 183.28 87.8671 182.827 88.5018C182.374 89.1364 182 89.7484 181.705 90.3378C181.433 90.9044 181.297 91.3804 181.297 91.7658C181.297 92.2191 181.433 92.5591 181.705 92.7858C181.977 93.0124 182.374 93.1258 182.895 93.1258C183.802 93.1258 184.652 92.9104 185.445 92.4798C186.261 92.0264 186.998 91.5051 187.655 90.9158C188.312 90.3038 188.868 89.7371 189.321 89.2158C189.774 88.6718 190.08 88.3204 190.239 88.1618C190.239 88.1618 190.273 88.1958 190.341 88.2638C190.432 88.3318 190.477 88.3658 190.477 88.3658C190.318 88.5471 190.012 88.9098 189.559 89.4538C189.106 89.9978 188.539 90.5871 187.859 91.2218C187.179 91.8564 186.408 92.4004 185.547 92.8538C184.686 93.3071 183.756 93.5338 182.759 93.5338ZM201.039 72.6238C201.289 72.6691 201.595 72.6918 201.957 72.6918C202.343 72.6918 202.649 72.6691 202.875 72.6238L191.043 89.1138C190.681 89.6578 190.329 90.1678 189.989 90.6438C189.649 91.1198 189.377 91.5391 189.173 91.9018C188.947 92.2418 188.833 92.5138 188.833 92.7178C188.833 92.8764 188.901 92.9898 189.037 93.0578C189.151 93.1258 189.321 93.1598 189.547 93.1598C190.069 93.1598 190.647 92.9784 191.281 92.6158C191.916 92.2304 192.539 91.7544 193.151 91.1878C193.786 90.6211 194.364 90.0658 194.885 89.5218C195.429 88.9778 195.86 88.5358 196.177 88.1958L196.415 88.3998C196.121 88.7171 195.713 89.1591 195.191 89.7258C194.67 90.2924 194.069 90.8704 193.389 91.4598C192.732 92.0264 192.041 92.5138 191.315 92.9218C190.613 93.3298 189.921 93.5338 189.241 93.5338C188.879 93.5338 188.573 93.4318 188.323 93.2278C188.051 93.0238 187.915 92.7291 187.915 92.3438C187.915 92.0944 188.006 91.7771 188.187 91.3918C188.369 91.0064 188.595 90.6098 188.867 90.2018C189.117 89.7711 189.366 89.3858 189.615 89.0458C189.842 88.6831 190.023 88.4111 190.159 88.2298L201.039 72.6238ZM195.456 93.5338C195.138 93.5338 194.787 93.4431 194.402 93.2618C193.994 93.1031 193.79 92.8311 193.79 92.4458C193.79 91.9698 194.005 91.3691 194.436 90.6438C194.866 89.9184 195.399 89.1704 196.034 88.3998C196.646 87.6291 197.246 86.9038 197.836 86.2238C198.425 85.5438 198.867 85.0111 199.162 84.6258C199.411 84.6484 199.706 84.6598 200.046 84.6598C200.408 84.6598 200.726 84.6484 200.998 84.6258C200.68 85.0111 200.261 85.4984 199.74 86.0878C199.241 86.6771 198.708 87.3118 198.142 87.9918C197.598 88.6491 197.065 89.2951 196.544 89.9298C196.045 90.5644 195.637 91.1311 195.32 91.6298C195.002 92.1284 194.844 92.4911 194.844 92.7178C194.844 92.8764 194.912 92.9898 195.048 93.0578C195.184 93.1258 195.41 93.1598 195.728 93.1598C196.272 93.1598 196.872 92.9558 197.53 92.5478C198.21 92.1171 198.867 91.6071 199.502 91.0178C200.136 90.4284 200.703 89.8731 201.202 89.3518C201.7 88.8078 202.052 88.4111 202.256 88.1618L202.528 88.3998C202.324 88.6264 201.972 89.0231 201.474 89.5898C200.998 90.1338 200.42 90.7118 199.74 91.3238C199.082 91.9358 198.38 92.4571 197.632 92.8878C196.906 93.3184 196.181 93.5338 195.456 93.5338ZM202.256 82.0418C201.984 82.0418 201.78 81.9624 201.644 81.8038C201.508 81.6224 201.44 81.4184 201.44 81.1918C201.44 80.9424 201.576 80.6818 201.848 80.4098C202.12 80.1378 202.403 80.0018 202.698 80.0018C203.015 80.0018 203.242 80.0924 203.378 80.2738C203.514 80.4324 203.582 80.5911 203.582 80.7498C203.582 81.0898 203.446 81.3958 203.174 81.6678C202.902 81.9171 202.596 82.0418 202.256 82.0418ZM209.386 93.5338C208.185 93.5338 207.584 93.1824 207.584 92.4798C207.584 92.0264 207.731 91.5391 208.026 91.0178C208.343 90.4964 208.729 89.9751 209.182 89.4538C209.635 88.9098 210.089 88.3771 210.542 87.8558C211.018 87.3344 211.403 86.8584 211.698 86.4278C212.015 85.9744 212.174 85.5891 212.174 85.2718C212.174 85.1584 212.117 85.0678 212.004 84.9998C211.913 84.9091 211.777 84.8638 211.596 84.8638C211.324 84.8638 210.939 84.9998 210.44 85.2718C209.964 85.5438 209.352 86.0084 208.604 86.6658C207.879 87.3004 207.017 88.1618 206.02 89.2498C205.023 90.3151 203.878 91.6524 202.586 93.2618C202.382 93.2164 202.076 93.1938 201.668 93.1938C201.26 93.1938 200.909 93.2391 200.614 93.3298C201.271 92.3778 201.917 91.4484 202.552 90.5418C203.187 89.6351 203.765 88.8078 204.286 88.0598C204.83 87.3118 205.261 86.6998 205.578 86.2238C205.895 85.7251 206.054 85.4191 206.054 85.3058C206.054 85.1018 205.952 84.9998 205.748 84.9998C205.521 84.9998 205.238 85.1811 204.898 85.5438C204.558 85.8838 204.184 86.3258 203.776 86.8698C203.368 87.3911 202.949 87.9238 202.518 88.4678L202.212 88.2638C202.665 87.7424 203.107 87.1984 203.538 86.6318C203.969 86.0651 204.411 85.5778 204.864 85.1698C205.317 84.7618 205.793 84.5578 206.292 84.5578C206.541 84.5578 206.768 84.6258 206.972 84.7618C207.199 84.8751 207.312 85.0678 207.312 85.3398C207.312 85.5891 207.21 85.8951 207.006 86.2578C206.825 86.5978 206.575 86.9944 206.258 87.4478C205.941 87.8784 205.578 88.3658 205.17 88.9098C204.785 89.4311 204.377 89.9978 203.946 90.6098L203.98 90.8138C205.181 89.4991 206.19 88.4338 207.006 87.6178C207.845 86.8018 208.536 86.1784 209.08 85.7478C209.647 85.2944 210.134 84.9884 210.542 84.8298C210.973 84.6484 211.381 84.5578 211.766 84.5578C212.287 84.5578 212.661 84.6711 212.888 84.8978C213.115 85.1018 213.228 85.3851 213.228 85.7478C213.228 86.2918 213.069 86.8698 212.752 87.4818C212.435 88.0711 212.038 88.6604 211.562 89.2498C211.109 89.8164 210.644 90.3491 210.168 90.8478C209.715 91.3238 209.329 91.7318 209.012 92.0718C208.695 92.4118 208.536 92.6384 208.536 92.7518C208.536 92.8878 208.57 92.9898 208.638 93.0578C208.729 93.1258 208.944 93.1598 209.284 93.1598C210.123 93.1598 210.916 92.8991 211.664 92.3778C212.435 91.8564 213.171 91.2218 213.874 90.4738C214.577 89.7031 215.234 88.9438 215.846 88.1958L216.118 88.4338C215.506 89.1591 214.837 89.9184 214.112 90.7118C213.387 91.5051 212.627 92.1738 211.834 92.7178C211.041 93.2618 210.225 93.5338 209.386 93.5338Z" fill="none"/>
</svg>
