<svg width="109" height="130" viewBox="0 0 109 130" fill="none" xmlns="http://www.w3.org/2000/svg">
<path d="M108.106 53.8217C108.106 83.2662 84.0216 107.143 54.3029 107.143C24.5842 107.143 0.5 83.2662 0.5 53.8217C0.5 24.3771 24.5842 0.5 54.3029 0.5C84.0216 0.5 108.106 24.3771 108.106 53.8217Z" stroke="white"/>
<path d="M30.492 114.6C30.644 114.752 30.72 114.948 30.72 115.188C30.72 115.388 30.676 115.592 30.588 115.8L27.516 123L27.384 123.06L24.36 114.6H25.38L27.888 121.704L30.444 115.8C30.532 115.6 30.576 115.392 30.576 115.176C30.576 114.96 30.516 114.792 30.396 114.672L30.492 114.6ZM31.7765 120.072C31.7765 121.064 31.9485 121.792 32.2925 122.256C32.6445 122.72 33.1045 122.952 33.6725 122.952C34.4725 122.952 35.1845 122.832 35.8085 122.592L35.8445 122.676C35.2045 122.924 34.4805 123.048 33.6725 123.048C32.8725 123.048 32.2205 122.808 31.7165 122.328C31.2125 121.848 30.9605 121.108 30.9605 120.108C30.9605 119.108 31.2245 118.332 31.7525 117.78C32.2805 117.228 32.9525 116.952 33.7685 116.952C34.4245 116.952 34.9765 117.148 35.4245 117.54C35.8725 117.932 36.0965 118.512 36.0965 119.28C36.0965 119.32 36.0965 119.36 36.0965 119.4H31.8125C31.7885 119.616 31.7765 119.84 31.7765 120.072ZM35.2805 119.304C35.2725 118.536 35.1245 117.968 34.8365 117.6C34.5485 117.232 34.1765 117.048 33.7205 117.048C33.2645 117.048 32.8565 117.248 32.4965 117.648C32.1445 118.048 31.9205 118.6 31.8245 119.304H35.2805ZM40.4528 117.42C40.3248 117.316 40.1168 117.228 39.8288 117.156C39.5488 117.084 39.3368 117.048 39.1928 117.048C39.0488 117.048 38.9648 117.048 38.9408 117.048C38.5088 117.056 38.1968 117.168 38.0048 117.384C37.8128 117.592 37.7168 117.828 37.7168 118.092C37.7168 118.356 37.8008 118.58 37.9688 118.764C38.1368 118.94 38.3448 119.08 38.5928 119.184C38.8488 119.28 39.1208 119.392 39.4088 119.52C39.7048 119.648 39.9768 119.78 40.2248 119.916C40.4808 120.044 40.6928 120.236 40.8608 120.492C41.0288 120.74 41.1128 121.052 41.1128 121.428C41.1128 121.804 40.9808 122.124 40.7168 122.388C40.4528 122.652 40.1568 122.828 39.8288 122.916C39.5088 123.004 39.1608 123.048 38.7848 123.048C37.9688 123.048 37.3568 122.868 36.9488 122.508L37.0208 122.436C37.1808 122.588 37.4168 122.712 37.7288 122.808C38.0488 122.904 38.3568 122.952 38.6528 122.952C39.1248 122.952 39.5128 122.824 39.8168 122.568C40.1288 122.304 40.2848 121.98 40.2848 121.596C40.2848 121.204 40.1688 120.892 39.9368 120.66C39.7048 120.42 39.4208 120.236 39.0848 120.108C38.7568 119.972 38.4248 119.84 38.0888 119.712C37.7528 119.576 37.4688 119.392 37.2368 119.16C37.0048 118.92 36.8888 118.644 36.8888 118.332C36.8888 118.02 36.9608 117.768 37.1048 117.576C37.2488 117.376 37.4408 117.236 37.6808 117.156C38.0888 117.02 38.4968 116.952 38.9048 116.952C39.5928 116.952 40.1288 117.08 40.5128 117.336L40.4528 117.42ZM41.8969 117H42.7369V118.488C42.8729 118.12 43.1249 117.772 43.4929 117.444C43.8609 117.116 44.2769 116.952 44.7409 116.952C46.3649 116.952 47.1769 117.904 47.1769 119.808C47.1769 121.968 46.1289 123.048 44.0329 123.048C43.6569 123.048 43.2249 122.96 42.7369 122.784V126H41.8969V117ZM44.7289 117.048C44.2329 117.048 43.7849 117.264 43.3849 117.696C42.9849 118.12 42.7689 118.504 42.7369 118.848V122.676C43.2249 122.86 43.6529 122.952 44.0209 122.952C45.5649 122.952 46.3369 121.9 46.3369 119.796C46.3369 117.964 45.8009 117.048 44.7289 117.048ZM48.9562 120.072C48.9562 121.064 49.1282 121.792 49.4722 122.256C49.8242 122.72 50.2842 122.952 50.8522 122.952C51.6522 122.952 52.3642 122.832 52.9882 122.592L53.0242 122.676C52.3842 122.924 51.6602 123.048 50.8522 123.048C50.0522 123.048 49.4002 122.808 48.8962 122.328C48.3922 121.848 48.1402 121.108 48.1402 120.108C48.1402 119.108 48.4042 118.332 48.9322 117.78C49.4602 117.228 50.1322 116.952 50.9482 116.952C51.6042 116.952 52.1562 117.148 52.6042 117.54C53.0522 117.932 53.2762 118.512 53.2762 119.28C53.2762 119.32 53.2762 119.36 53.2762 119.4H48.9922C48.9682 119.616 48.9562 119.84 48.9562 120.072ZM52.4602 119.304C52.4522 118.536 52.3042 117.968 52.0162 117.6C51.7282 117.232 51.3562 117.048 50.9002 117.048C50.4442 117.048 50.0362 117.248 49.6762 117.648C49.3242 118.048 49.1002 118.6 49.0042 119.304H52.4602ZM56.0572 117.516V117.264C55.6972 117.408 55.3692 117.7 55.0732 118.14C54.7772 118.572 54.6212 118.98 54.6052 119.364V123H53.7652V117H54.6052V118.908C54.7332 118.444 54.9772 118.008 55.3372 117.6C55.6972 117.184 56.1052 116.968 56.5612 116.952H56.6092C56.7692 116.952 56.9012 117.008 57.0052 117.12C57.1172 117.224 57.1732 117.356 57.1732 117.516C57.1732 117.676 57.1172 117.808 57.0052 117.912C56.9012 118.016 56.7692 118.068 56.6092 118.068C56.4492 118.068 56.3172 118.016 56.2132 117.912C56.1092 117.808 56.0572 117.676 56.0572 117.516ZM58.0177 117.096V117H58.2697V115.8H59.1097V117H60.9457V117.096H59.1097V121.464C59.1097 121.984 59.1657 122.36 59.2777 122.592C59.3977 122.824 59.6417 122.94 60.0097 122.94C60.3857 122.94 60.7657 122.864 61.1497 122.712L61.1857 122.808C60.7857 122.96 60.3257 123.036 59.8057 123.036C59.2937 123.036 58.9097 122.932 58.6537 122.724C58.3977 122.508 58.2697 122.084 58.2697 121.452V117.096H58.0177ZM62.9462 123C62.6182 123 62.3662 122.928 62.1902 122.784C62.0222 122.64 61.9342 122.496 61.9262 122.352L61.9142 122.148V117H62.7542V122.148C62.7542 122.38 62.7982 122.56 62.8862 122.688C62.9822 122.808 63.0742 122.872 63.1622 122.88L63.3062 122.904H63.6782V123H62.9462ZM61.9862 115.656C61.8902 115.56 61.8422 115.44 61.8422 115.296C61.8422 115.152 61.8902 115.032 61.9862 114.936C62.0822 114.832 62.2022 114.78 62.3462 114.78C62.4902 114.78 62.6102 114.832 62.7062 114.936C62.8102 115.032 62.8622 115.152 62.8622 115.296C62.8622 115.44 62.8102 115.56 62.7062 115.656C62.6102 115.752 62.4902 115.8 62.3462 115.8C62.2022 115.8 62.0822 115.752 61.9862 115.656ZM69.3858 123C69.0578 123 68.8058 122.928 68.6298 122.784C68.4618 122.64 68.3738 122.496 68.3658 122.352L68.3538 122.148V118.38C68.3538 117.748 68.1898 117.344 67.8618 117.168C67.6938 117.088 67.4858 117.048 67.2378 117.048C66.7258 117.048 66.2658 117.252 65.8578 117.66C65.4498 118.06 65.2458 118.42 65.2458 118.74V123H64.4058V117H65.2458V118.368C65.3818 118.024 65.6338 117.704 66.0018 117.408C66.3698 117.104 66.7738 116.952 67.2138 116.952C67.6538 116.952 68.0098 116.996 68.2818 117.084C68.5618 117.164 68.7658 117.28 68.8938 117.432C69.0938 117.68 69.1938 118 69.1938 118.392V122.148C69.1938 122.38 69.2378 122.56 69.3258 122.688C69.4218 122.808 69.5178 122.872 69.6138 122.88L69.7458 122.904H70.1178V123H69.3858ZM71.421 120.072C71.421 121.064 71.593 121.792 71.937 122.256C72.289 122.72 72.749 122.952 73.317 122.952C74.117 122.952 74.829 122.832 75.453 122.592L75.489 122.676C74.849 122.924 74.125 123.048 73.317 123.048C72.517 123.048 71.865 122.808 71.361 122.328C70.857 121.848 70.605 121.108 70.605 120.108C70.605 119.108 70.869 118.332 71.397 117.78C71.925 117.228 72.597 116.952 73.413 116.952C74.069 116.952 74.621 117.148 75.069 117.54C75.517 117.932 75.741 118.512 75.741 119.28C75.741 119.32 75.741 119.36 75.741 119.4H71.457C71.433 119.616 71.421 119.84 71.421 120.072ZM74.925 119.304C74.917 118.536 74.769 117.968 74.481 117.6C74.193 117.232 73.821 117.048 73.365 117.048C72.909 117.048 72.501 117.248 72.141 117.648C71.789 118.048 71.565 118.6 71.469 119.304H74.925Z" fill="white"/>
<path d="M31 35.3373L56.3744 31L77.784 35.3373V76.5414H31V35.3373Z" stroke="white"/>
<line x1="54.892" y1="31" x2="54.892" y2="76.5414" stroke="white"/>
<rect x="31.5" y="53.8567" width="45.784" height="22.1847" stroke="white"/>
<path d="M45.0109 41.0522C45.1629 41.2042 45.2389 41.4002 45.2389 41.6402C45.2389 41.8402 45.1949 42.0442 45.1069 42.2522L42.0349 49.4522L41.9029 49.5122L38.8789 41.0522H39.8989L42.4069 48.1562L44.9629 42.2522C45.0509 42.0522 45.0949 41.8442 45.0949 41.6282C45.0949 41.4122 45.0349 41.2442 44.9149 41.1242L45.0109 41.0522Z" fill="white"/>
<path d="M68.3697 49.5002C66.8737 49.5002 65.7657 49.0762 65.0457 48.2282C64.7897 47.9242 64.5817 47.5202 64.4217 47.0162C64.2617 46.5122 64.1817 45.9002 64.1817 45.1802C64.1817 44.4602 64.2977 43.8162 64.5297 43.2482C64.7697 42.6722 65.0937 42.2282 65.5017 41.9162C66.2937 41.3322 67.2497 41.0402 68.3697 41.0402C68.6897 41.0402 69.0017 41.0682 69.3057 41.1242C69.6097 41.1722 69.8377 41.2242 69.9897 41.2802L70.2057 41.3642L70.1697 41.4842C69.6257 41.2682 69.0257 41.1602 68.3697 41.1602C67.5217 41.1602 66.8137 41.4362 66.2457 41.9882C65.8137 42.3962 65.5097 42.9962 65.3337 43.7882C65.2297 44.2362 65.1777 44.7842 65.1777 45.4322C65.1777 46.0802 65.2697 46.6802 65.4537 47.2322C65.6377 47.7762 65.8457 48.1802 66.0777 48.4442C66.3177 48.7082 66.6057 48.9202 66.9417 49.0802C67.2777 49.2322 67.5457 49.3202 67.7457 49.3442C67.9457 49.3682 68.1857 49.3802 68.4657 49.3802C68.7537 49.3802 69.0777 49.3522 69.4377 49.2962C69.7977 49.2402 70.0697 49.1882 70.2537 49.1402L70.5297 49.0562L70.5657 49.1762C69.9577 49.3922 69.2257 49.5002 68.3697 49.5002Z" fill="white"/>
<path d="M42.444 61.096H41.88V66.904H42.6V67H40.2V66.904H40.92V61.096H40.356V61H42.444V61.096ZM47.6085 64.888C47.5125 65.08 47.3365 65.264 47.0805 65.44C46.8245 65.608 46.4485 65.692 45.9525 65.692C45.4645 65.692 44.9845 65.512 44.5125 65.152C44.0485 64.792 43.8165 64.256 43.8165 63.544C43.8165 62.832 44.0405 62.22 44.4885 61.708C44.9365 61.196 45.5805 60.94 46.4205 60.94C47.9565 60.94 48.7245 61.88 48.7245 63.76C48.7245 64.64 48.4965 65.444 48.0405 66.172C47.5205 67.012 46.7445 67.592 45.7125 67.912C45.1445 68.096 44.5045 68.188 43.7925 68.188L43.8045 68.104C45.2205 68.104 46.2525 67.648 46.9005 66.736C47.2525 66.24 47.4885 65.624 47.6085 64.888ZM47.6685 64.588C47.7405 64.092 47.7765 63.636 47.7765 63.22C47.7765 62.516 47.6405 61.976 47.3685 61.6C47.1045 61.224 46.7565 61.036 46.3245 61.036C45.8925 61.036 45.5245 61.276 45.2205 61.756C44.9245 62.236 44.7765 62.836 44.7765 63.556C44.7765 64.268 44.9125 64.788 45.1845 65.116C45.4645 65.436 45.8005 65.596 46.1925 65.596C46.4565 65.596 46.7085 65.52 46.9485 65.368C47.1965 65.216 47.3765 65.064 47.4885 64.912C47.6085 64.752 47.6685 64.644 47.6685 64.588Z" fill="white"/>
<path d="M63.444 62.096H62.88V67.904H63.6V68H61.2V67.904H61.92V62.096H61.356V62H63.444V62.096ZM65.0297 61.988H68.9777C67.3617 65.796 66.2577 68.2 65.6657 69.2L65.5697 69.164C66.2017 68.076 67.1657 66 68.4617 62.936L65.0297 62.924V61.988Z" fill="white"/>
</svg>
