<svg width="7px" height="8px" viewBox="0 0 137 139" fill="none" xmlns="http://www.w3.org/2000/svg">
<path d="M14.8595 61.4473L0 76.2351L60.0093 136.247L74.9345 121.393L14.8595 61.4473Z" fill="#C8BAAB"/>
<path d="M106.232 22.7077C110.33 22.7077 113.653 26.0231 113.653 30.113C113.653 34.2029 110.33 37.5182 106.232 37.5182C102.133 37.5182 98.8109 34.2029 98.8109 30.113C98.8109 26.0231 102.133 22.7077 106.232 22.7077ZM106.232 12.6154C96.5631 12.6154 88.6973 20.4647 88.6973 30.113C88.6973 39.7613 96.5631 47.6106 106.232 47.6106C115.9 47.6106 123.766 39.7613 123.766 30.113C123.766 20.4647 115.9 12.6154 106.232 12.6154Z" fill="#C8BAAB"/>
<path d="M109.916 0H76.5966L14.7871 61.4801L74.7964 121.492L136.535 60.0848V26.5025L109.916 0ZM106.232 37.5183C102.134 37.5183 98.8112 34.203 98.8112 30.1131C98.8112 26.0231 102.134 22.7078 106.232 22.7078C110.331 22.7078 113.653 26.0231 113.653 30.1131C113.653 34.203 110.331 37.5183 106.232 37.5183Z" fill="#E7D4B1"/>
<path d="M87.2301 138.77C104.685 138.77 118.835 124.65 118.835 107.231C118.835 89.8131 104.685 75.6927 87.2301 75.6927C69.7751 75.6927 55.625 89.8131 55.625 107.231C55.625 124.65 69.7751 138.77 87.2301 138.77Z" fill="#89654E"/>
<path d="M79.623 113.117V114.813H78.6621V113.18C77.5059 113.18 76.5658 112.956 75.8418 112.508V110.766C76.1595 111.042 76.5892 111.274 77.1309 111.461C77.6777 111.649 78.1882 111.742 78.6621 111.742V108.266C77.4329 107.698 76.6361 107.175 76.2715 106.695C75.9121 106.216 75.7324 105.649 75.7324 104.992C75.7324 104.216 76.0085 103.547 76.5605 102.984C77.1126 102.417 77.8132 102.076 78.6621 101.961V100.555H79.623V101.93C80.7168 101.961 81.472 102.107 81.8887 102.367V104.039C81.321 103.623 80.5658 103.399 79.623 103.367V106.969C80.7689 107.5 81.5527 108.016 81.9746 108.516C82.3965 109.016 82.6074 109.581 82.6074 110.211C82.6074 110.977 82.3444 111.617 81.8184 112.133C81.2923 112.649 80.5605 112.977 79.623 113.117ZM78.6621 106.524V103.406C78.2715 103.484 77.9616 103.651 77.7324 103.906C77.5033 104.162 77.3887 104.471 77.3887 104.836C77.3887 105.221 77.4824 105.537 77.6699 105.781C77.8574 106.026 78.1882 106.274 78.6621 106.524ZM79.623 108.688V111.695C80.5085 111.508 80.9512 111.047 80.9512 110.313C80.9512 109.698 80.5085 109.156 79.623 108.688ZM88.3027 101.727V113.18H86.4902V103.945C86.1621 104.18 85.8079 104.38 85.4277 104.547C85.0527 104.708 84.623 104.852 84.1387 104.977V103.43C84.4408 103.331 84.7324 103.227 85.0137 103.117C85.2949 103.008 85.571 102.886 85.8418 102.75C86.1178 102.615 86.3939 102.464 86.6699 102.297C86.9512 102.13 87.2402 101.94 87.5371 101.727H88.3027ZM98.2559 109.578C98.2559 110.141 98.1621 110.654 97.9746 111.117C97.7923 111.581 97.5371 111.982 97.209 112.32C96.8809 112.654 96.4902 112.914 96.0371 113.102C95.5892 113.284 95.1022 113.375 94.5762 113.375C94.0137 113.375 93.4954 113.266 93.0215 113.047C92.5527 112.828 92.1465 112.503 91.8027 112.07C91.4642 111.638 91.2012 111.102 91.0137 110.461C90.8262 109.815 90.7324 109.068 90.7324 108.219C90.7324 107.182 90.8548 106.263 91.0996 105.461C91.3496 104.659 91.6908 103.987 92.123 103.445C92.5553 102.904 93.0632 102.492 93.6465 102.211C94.2298 101.93 94.86 101.789 95.5371 101.789C95.959 101.789 96.3418 101.818 96.6855 101.875C97.0345 101.932 97.3132 102.011 97.5215 102.109V103.742C97.2559 103.607 96.972 103.492 96.6699 103.399C96.3678 103.305 96.0215 103.258 95.6309 103.258C95.1934 103.258 94.7897 103.346 94.4199 103.524C94.0501 103.701 93.7298 103.961 93.459 104.305C93.1934 104.643 92.9824 105.065 92.8262 105.57C92.6751 106.07 92.597 106.649 92.5918 107.305H92.6387C92.8783 106.935 93.2012 106.643 93.6074 106.43C94.0189 106.216 94.5007 106.109 95.0527 106.109C95.5423 106.109 95.9824 106.19 96.373 106.352C96.7689 106.508 97.1048 106.737 97.3809 107.039C97.6621 107.336 97.8783 107.701 98.0293 108.133C98.1803 108.56 98.2559 109.042 98.2559 109.578ZM96.4277 109.727C96.4277 109.404 96.3887 109.109 96.3105 108.844C96.2376 108.578 96.123 108.352 95.9668 108.164C95.8158 107.971 95.623 107.823 95.3887 107.719C95.1595 107.615 94.8887 107.563 94.5762 107.563C94.2637 107.563 93.9876 107.62 93.748 107.734C93.5137 107.844 93.3158 107.99 93.1543 108.172C92.9928 108.354 92.8704 108.563 92.7871 108.797C92.709 109.031 92.6699 109.271 92.6699 109.516C92.6699 109.781 92.7064 110.055 92.7793 110.336C92.8574 110.612 92.9746 110.865 93.1309 111.094C93.2871 111.323 93.485 111.513 93.7246 111.664C93.9694 111.81 94.2585 111.883 94.5918 111.883C94.8887 111.883 95.1517 111.828 95.3809 111.719C95.61 111.609 95.8001 111.458 95.9512 111.266C96.1074 111.073 96.2246 110.846 96.3027 110.586C96.3861 110.32 96.4277 110.034 96.4277 109.727Z" fill="white"/>
</svg>
