<svg width="272" height="103" viewBox="0 0 272 103" fill="#232e22" xmlns="http://www.w3.org/2000/svg">
<path d="M20.0853 62.8374C20.7937 62.7303 21.4699 62.914 22.1139 63.3888C22.6505 63.7843 23.1108 64.3059 23.4948 64.9534L36.7363 87.4372L36.6362 87.91L7.95628 79.2898L9.97382 76.5531L33.9949 83.8757L23.21 65.3398C22.8474 64.7081 22.3764 64.1786 21.7968 63.7514C21.2173 63.3241 20.6479 63.1528 20.0886 63.2374L20.0853 62.8374Z" fill="#232e22"/>
<path d="M42.7355 41.1402L42.9976 41.4423L33.479 49.6981L41.3417 58.7634L50.1652 51.1104L50.4273 51.4126L41.6038 59.0655L51.301 70.246L61.4843 61.4137L61.7464 61.7158L49.055 72.7235L30.7089 51.5713L42.7355 41.1402Z" fill="#232e22"/>
<path d="M69.6688 26.242C67.0936 26.5999 64.861 27.3016 62.9709 28.3472C61.1041 29.3798 59.8651 30.5832 59.2539 31.9574C58.6427 33.3316 58.7243 34.7188 59.4988 36.1189C60.4411 37.8223 62.0571 38.6502 64.3468 38.6026C65.3596 38.5604 66.4295 38.4562 67.5565 38.2899C68.6939 38.0874 69.8572 37.9315 71.0462 37.8223C72.2353 37.7131 73.3749 37.7074 74.4652 37.8053C75.5555 37.9031 76.6102 38.2949 77.6294 38.9805C78.6358 39.6428 79.5455 40.709 80.3587 42.1791C81.159 43.6259 81.4347 45.0885 81.186 46.567C80.9372 48.0455 80.3327 49.2941 79.3725 50.3128C78.4227 51.2953 77.1778 52.2125 75.6377 53.0644C72.7675 54.6521 69.9237 55.2957 67.1063 54.9952L67.1264 54.6184C68.232 54.7991 69.5012 54.7523 70.9341 54.4777C72.3773 54.167 73.7407 53.6567 75.0241 52.9467C76.9142 51.9012 78.2855 50.5789 79.138 48.9798C80.0009 47.3444 79.9612 45.675 79.0189 43.9716C77.9863 42.1048 76.2929 41.1369 73.9386 41.0678C72.8871 41.04 71.7732 41.0924 70.5971 41.2249C69.4443 41.3445 68.2733 41.4589 67.0843 41.5681C65.8823 41.654 64.7362 41.648 63.646 41.5501C61.2271 41.3644 59.424 40.1981 58.2365 38.0513C57.2942 36.3479 57.1044 34.6549 57.6669 32.9724C58.2166 31.2665 59.6348 29.7811 61.9216 28.5162C64.2317 27.2383 66.7962 26.3378 69.6152 25.8146L69.6688 26.242Z" fill="#232e22"/>
<path d="M83.9599 18.5654C86.8608 17.4703 89.4349 16.5849 91.6821 15.9091C98.0153 14.0047 101.854 15.287 103.198 19.756C103.82 21.8245 103.829 23.7989 103.225 25.6792C102.916 26.6908 102.251 27.6286 101.23 28.4926C100.201 29.3311 98.8571 29.9999 97.1972 30.499L91.5279 32.2038L95.1103 44.1168L91.9309 45.0729L83.9599 18.5654ZM91.8356 16.2807C90.3545 16.7261 88.8236 17.2839 87.243 17.9541L91.4128 31.8207L97.082 30.116C100.637 28.88 101.661 25.7594 100.156 20.7541C99.5419 18.7111 98.5334 17.3019 97.1306 16.5263C95.7202 15.7252 93.9552 15.6433 91.8356 16.2807Z" fill="#232e22"/>
<path d="M131.974 9.22045L132.004 9.61933L119.44 10.5634L120.339 22.5297L131.986 21.6545L132.016 22.0534L120.369 22.9286L121.478 37.687L134.92 36.6769L134.95 37.0758L118.197 38.3346L116.099 10.4133L131.974 9.22045Z" fill="#232e22"/>
<path d="M148.419 9.93309C151.51 10.1844 154.228 10.4874 156.575 10.8421C163.088 11.8264 166.015 14.4938 165.358 18.8444C165.079 20.6901 164.382 22.2703 163.266 23.585C162.15 24.8997 160.462 25.629 158.202 25.7729L164.098 40.297L160.42 39.7411L154.646 25.4782L149.544 24.7071L147.566 37.7984L144.283 37.3023L148.419 9.93309ZM156.515 11.2376C154.986 11.0065 153.364 10.8557 151.648 10.7852L149.604 24.3116L155.457 25.1962C159.199 25.5999 161.441 23.3496 162.182 18.4453C162.485 16.4414 162.162 14.8284 161.214 13.6064C160.27 12.3579 158.704 11.5683 156.515 11.2376Z" fill="#232e22"/>
<path d="M180.893 46.059L177.794 44.8674L187.7 19.1064L181.241 16.6227L181.385 16.2494L197.439 22.4227L197.295 22.7961L190.799 20.298L180.893 46.059Z" fill="#232e22"/>
<path d="M209.177 29.0076L209.382 28.6639L215.5 32.3052L215.296 32.6489L213.611 31.6465L199.701 55.0203L201.385 56.0227L201.18 56.3664L195.062 52.725L195.266 52.3813L196.848 53.3223L210.758 29.9486L209.177 29.0076Z" fill="#232e22"/>
<path d="M209.932 62.1165L209.542 61.7727L228.055 40.7659L229.075 41.6651L224.448 72.0831L241.559 52.6668L241.949 53.0106L223.437 74.0174L221.246 72.0868L225.271 44.7108L209.932 62.1165Z" fill="#232e22"/>
<path d="M261.984 77.8062L261.66 78.041L254.264 67.8404L244.549 74.8846L251.405 84.3404L251.081 84.5752L244.225 75.1194L232.243 83.8074L240.156 94.7204L239.833 94.9552L229.971 81.3544L252.639 64.9178L261.984 77.8062Z" fill="#232e22"/>
</svg>
